<svg xmlns="http://www.w3.org/2000/svg" xmlns:xlink="http://www.w3.org/1999/xlink" width="240" zoomAndPan="magnify" viewBox="0 0 180 74.999997" height="100" preserveAspectRatio="xMidYMid meet" version="1.0"><defs><g/><clipPath id="21bc73cd93"><path d="M 0 2.351562 L 72.75 2.351562 L 72.75 72.851562 L 0 72.851562 Z M 0 2.351562 " clip-rule="nonzero"/></clipPath></defs><g clip-path="url(#21bc73cd93)"><path fill="#ffffff" d="M 12.878906 72.847656 C 11.820312 72.847656 10.960938 71.984375 10.960938 70.925781 L 10.960938 60.976562 C 10.78125 61.007812 10.597656 61.023438 10.410156 61.023438 C 9.261719 61.023438 8.1875 60.402344 7.613281 59.40625 C 6.554688 57.570312 4.621094 54.226562 3.570312 52.449219 C 3.121094 51.6875 3 50.796875 3.230469 49.941406 C 3.460938 49.101562 4.03125 48.375 4.792969 47.953125 L 4.894531 47.898438 L 0.839844 40.507812 C 0.214844 39.363281 0.0234375 38.027344 0.308594 36.746094 C 0.347656 36.566406 0.40625 36.355469 0.484375 36.132812 C 0.914062 34.890625 1.792969 33.847656 2.953125 33.207031 L 6.417969 31.296875 C 7.738281 30.554688 9.390625 30.429688 10.808594 30.949219 C 11.121094 31.0625 11.421875 31.203125 11.703125 31.367188 C 11.882812 30.5625 12.097656 29.765625 12.34375 28.980469 C 12.519531 28.402344 12.734375 27.789062 12.972656 27.167969 C 13.402344 26.03125 13.910156 24.914062 14.480469 23.832031 L 12.375 12.898438 C 12.1875 11.921875 12.410156 10.890625 12.980469 10.078125 C 13.550781 9.261719 14.441406 8.707031 15.421875 8.554688 L 16.136719 8.441406 L 54.523438 2.394531 C 54.730469 2.363281 54.941406 2.347656 55.152344 2.347656 C 57.105469 2.347656 58.777344 3.75 59.125 5.6875 L 60.101562 11.179688 C 60.445312 10.984375 60.804688 10.839844 61.1875 10.757812 C 61.453125 10.699219 61.722656 10.667969 61.996094 10.667969 C 66.355469 10.667969 69.90625 17.960938 71.488281 25.183594 C 72.609375 30.296875 72.714844 35.210938 71.785156 38.433594 L 71.785156 70.925781 C 71.785156 71.984375 70.925781 72.847656 69.867188 72.847656 Z M 12.878906 72.847656 " fill-opacity="1" fill-rule="nonzero"/></g><path fill="#ffc17d" d="M 70.03125 38.089844 L 70.03125 70.925781 L 46.917969 70.925781 L 44.363281 69.839844 L 41.8125 70.925781 L 13.042969 70.925781 L 13.042969 38.050781 C 13.042969 37.941406 13.046875 37.832031 13.046875 37.722656 C 13.046875 37.664062 13.046875 37.613281 13.046875 37.558594 C 13.058594 37.046875 13.078125 36.542969 13.113281 36.042969 C 13.273438 33.796875 13.6875 31.625 14.335938 29.554688 C 14.511719 28.980469 14.710938 28.414062 14.921875 27.855469 C 15.414062 26.574219 15.992188 25.332031 16.65625 24.148438 C 17.269531 23.042969 17.957031 21.988281 18.710938 20.980469 C 19.085938 20.472656 19.480469 19.976562 19.894531 19.496094 C 20 19.375 20.105469 19.253906 20.210938 19.136719 C 21.191406 18.023438 22.261719 16.988281 23.402344 16.039062 C 23.605469 15.875 23.808594 15.710938 24.011719 15.550781 C 24.484375 15.179688 24.972656 14.824219 25.464844 14.484375 C 25.710938 14.316406 25.953125 14.15625 26.199219 13.996094 C 26.789062 13.621094 27.386719 13.265625 28 12.929688 C 28.03125 12.914062 28.058594 12.898438 28.09375 12.882812 C 28.375 12.730469 28.664062 12.582031 28.953125 12.441406 C 30.835938 11.507812 32.839844 10.777344 34.933594 10.28125 C 37.050781 9.773438 39.261719 9.507812 41.535156 9.507812 C 43.085938 9.507812 44.609375 9.632812 46.089844 9.875 C 48.0625 10.1875 49.964844 10.707031 51.777344 11.410156 C 52.699219 11.765625 53.59375 12.164062 54.460938 12.609375 L 54.464844 12.613281 C 55.53125 13.160156 56.5625 13.769531 57.546875 14.445312 C 57.773438 14.597656 57.996094 14.75 58.210938 14.914062 C 58.515625 15.128906 58.8125 15.355469 59.105469 15.589844 C 59.214844 15.675781 59.328125 15.765625 59.4375 15.855469 C 59.449219 15.859375 59.457031 15.871094 59.46875 15.875 C 60.242188 16.503906 60.984375 17.175781 61.683594 17.878906 C 61.929688 18.125 62.175781 18.378906 62.410156 18.636719 C 63.027344 19.296875 63.609375 19.992188 64.15625 20.707031 C 65.335938 22.25 66.363281 23.914062 67.210938 25.679688 C 67.621094 26.527344 67.988281 27.402344 68.316406 28.300781 C 68.320312 28.320312 68.332031 28.339844 68.335938 28.363281 C 68.351562 28.394531 68.363281 28.429688 68.371094 28.464844 C 68.457031 28.695312 68.535156 28.921875 68.609375 29.148438 C 68.613281 29.160156 68.617188 29.179688 68.621094 29.191406 C 68.632812 29.234375 68.648438 29.277344 68.664062 29.320312 C 68.675781 29.359375 68.6875 29.398438 68.699219 29.441406 C 68.835938 29.867188 68.964844 30.296875 69.074219 30.730469 C 69.089844 30.785156 69.105469 30.84375 69.121094 30.902344 C 69.28125 31.515625 69.417969 32.140625 69.539062 32.777344 C 69.550781 32.835938 69.558594 32.890625 69.570312 32.953125 C 69.703125 33.691406 69.808594 34.4375 69.886719 35.191406 C 69.894531 35.253906 69.898438 35.3125 69.902344 35.375 C 69.941406 35.769531 69.96875 36.167969 69.988281 36.566406 C 69.996094 36.628906 70 36.6875 70 36.75 C 70.011719 37.03125 70.019531 37.3125 70.023438 37.597656 C 70.027344 37.65625 70.027344 37.71875 70.027344 37.773438 C 70.03125 37.878906 70.03125 37.984375 70.03125 38.089844 Z M 70.03125 38.089844 " fill-opacity="1" fill-rule="nonzero"/><path fill="#faded3" d="M 17.664062 33.972656 C 17.664062 34.875 16.933594 35.609375 16.035156 35.609375 C 15.132812 35.609375 14.402344 34.875 14.402344 33.972656 C 14.402344 33.070312 15.132812 32.335938 16.035156 32.335938 C 16.933594 32.335938 17.664062 33.070312 17.664062 33.972656 Z M 17.664062 33.972656 " fill-opacity="1" fill-rule="nonzero"/><path fill="#faded3" d="M 46.917969 70.925781 L 41.8125 70.925781 C 41.851562 69.546875 42.984375 68.445312 44.363281 68.445312 C 45.746094 68.445312 46.875 69.546875 46.917969 70.925781 Z M 46.917969 70.925781 " fill-opacity="1" fill-rule="nonzero"/><path fill="#faded3" d="M 65.628906 67.734375 C 65.628906 67.957031 65.585938 68.175781 65.5 68.382812 C 65.414062 68.589844 65.292969 68.769531 65.132812 68.929688 C 64.976562 69.089844 64.792969 69.210938 64.585938 69.296875 C 64.378906 69.382812 64.164062 69.425781 63.941406 69.425781 C 63.71875 69.425781 63.503906 69.382812 63.296875 69.296875 C 63.089844 69.210938 62.90625 69.089844 62.75 68.929688 C 62.589844 68.769531 62.46875 68.589844 62.382812 68.382812 C 62.300781 68.175781 62.257812 67.957031 62.257812 67.734375 C 62.257812 67.511719 62.300781 67.292969 62.382812 67.085938 C 62.46875 66.878906 62.589844 66.695312 62.75 66.539062 C 62.90625 66.378906 63.089844 66.257812 63.296875 66.171875 C 63.503906 66.085938 63.71875 66.042969 63.941406 66.042969 C 64.164062 66.042969 64.378906 66.085938 64.585938 66.171875 C 64.792969 66.257812 64.976562 66.378906 65.132812 66.539062 C 65.292969 66.695312 65.414062 66.878906 65.5 67.085938 C 65.585938 67.292969 65.628906 67.511719 65.628906 67.734375 Z M 65.628906 67.734375 " fill-opacity="1" fill-rule="nonzero"/><path fill="#faded3" d="M 69.109375 46.246094 C 69.109375 46.46875 69.066406 46.683594 68.980469 46.890625 C 68.894531 47.097656 68.773438 47.28125 68.613281 47.441406 C 68.457031 47.597656 68.273438 47.71875 68.066406 47.804688 C 67.859375 47.890625 67.644531 47.933594 67.421875 47.933594 C 67.199219 47.933594 66.984375 47.890625 66.777344 47.804688 C 66.570312 47.71875 66.386719 47.597656 66.230469 47.441406 C 66.070312 47.28125 65.949219 47.097656 65.863281 46.890625 C 65.777344 46.683594 65.734375 46.46875 65.738281 46.246094 C 65.734375 46.019531 65.777344 45.804688 65.863281 45.597656 C 65.949219 45.390625 66.070312 45.207031 66.230469 45.050781 C 66.386719 44.890625 66.570312 44.769531 66.777344 44.683594 C 66.984375 44.597656 67.199219 44.554688 67.421875 44.554688 C 67.644531 44.554688 67.859375 44.597656 68.066406 44.683594 C 68.273438 44.769531 68.457031 44.890625 68.613281 45.050781 C 68.773438 45.207031 68.894531 45.390625 68.980469 45.597656 C 69.066406 45.804688 69.109375 46.019531 69.109375 46.246094 Z M 69.109375 46.246094 " fill-opacity="1" fill-rule="nonzero"/><path fill="#faded3" d="M 18.589844 65.824219 C 18.589844 66.050781 18.546875 66.265625 18.460938 66.472656 C 18.375 66.679688 18.253906 66.863281 18.09375 67.019531 C 17.9375 67.179688 17.753906 67.300781 17.546875 67.386719 C 17.34375 67.472656 17.128906 67.515625 16.902344 67.515625 C 16.679688 67.515625 16.464844 67.472656 16.257812 67.386719 C 16.050781 67.300781 15.871094 67.179688 15.710938 67.019531 C 15.554688 66.863281 15.429688 66.679688 15.347656 66.472656 C 15.261719 66.265625 15.21875 66.050781 15.21875 65.824219 C 15.21875 65.601562 15.261719 65.386719 15.347656 65.179688 C 15.429688 64.972656 15.554688 64.789062 15.710938 64.628906 C 15.871094 64.472656 16.050781 64.347656 16.257812 64.261719 C 16.464844 64.175781 16.679688 64.132812 16.902344 64.132812 C 17.128906 64.132812 17.34375 64.175781 17.546875 64.261719 C 17.753906 64.347656 17.9375 64.472656 18.09375 64.628906 C 18.253906 64.789062 18.375 64.972656 18.460938 65.179688 C 18.546875 65.386719 18.589844 65.601562 18.589844 65.824219 Z M 18.589844 65.824219 " fill-opacity="1" fill-rule="nonzero"/><path fill="#7ea8c5" d="M 65.421875 64.097656 L 28.027344 68.035156 L 26.777344 68.164062 C 25.867188 68.261719 25.035156 67.644531 24.863281 66.742188 L 14.421875 12.535156 C 14.234375 11.554688 14.894531 10.609375 15.878906 10.453125 L 16.601562 10.339844 L 54.984375 4.296875 C 56.125 4.117188 57.195312 4.886719 57.402344 6.027344 L 67.292969 61.609375 C 67.511719 62.828125 66.652344 63.972656 65.421875 64.097656 Z M 65.421875 64.097656 " fill-opacity="1" fill-rule="nonzero"/><path fill="#faded3" d="M 18.429688 11.882812 L 28.214844 62.695312 L 65.734375 58.75 L 56.058594 6.375 Z M 18.429688 11.882812 " fill-opacity="1" fill-rule="nonzero"/><path fill="#a65236" d="M 30.195312 14.609375 C 30.328125 14.589844 30.445312 14.617188 30.542969 14.695312 C 30.644531 14.773438 30.703125 14.878906 30.722656 15.015625 L 31.695312 21.113281 C 31.71875 21.265625 31.691406 21.394531 31.609375 21.507812 C 31.527344 21.621094 31.410156 21.691406 31.261719 21.714844 C 31.195312 21.726562 31.121094 21.722656 31.039062 21.707031 C 30.957031 21.695312 30.894531 21.664062 30.84375 21.625 L 25.832031 16.890625 L 26.042969 16.71875 L 26.875 21.9375 C 26.894531 22.066406 26.871094 22.183594 26.796875 22.289062 C 26.722656 22.394531 26.617188 22.457031 26.484375 22.480469 C 26.34375 22.503906 26.222656 22.476562 26.125 22.398438 C 26.023438 22.320312 25.964844 22.21875 25.945312 22.085938 L 24.972656 15.976562 C 24.949219 15.824219 24.976562 15.6875 25.0625 15.578125 C 25.148438 15.46875 25.261719 15.402344 25.40625 15.378906 C 25.480469 15.367188 25.5625 15.367188 25.648438 15.386719 C 25.738281 15.402344 25.808594 15.4375 25.859375 15.492188 L 30.753906 20.132812 L 30.625 20.300781 L 29.804688 15.160156 C 29.785156 15.027344 29.808594 14.90625 29.882812 14.800781 C 29.957031 14.695312 30.058594 14.632812 30.195312 14.609375 Z M 30.195312 14.609375 " fill-opacity="1" fill-rule="nonzero"/><path fill="#a65236" d="M 32.8125 14.191406 L 36.304688 13.632812 C 36.449219 13.609375 36.574219 13.636719 36.6875 13.714844 C 36.800781 13.796875 36.867188 13.90625 36.890625 14.046875 C 36.914062 14.1875 36.882812 14.3125 36.796875 14.414062 C 36.714844 14.519531 36.601562 14.582031 36.460938 14.605469 L 33.410156 15.09375 L 33.484375 14.90625 L 33.84375 17.175781 L 33.738281 17.089844 L 36.324219 16.671875 C 36.464844 16.652344 36.59375 16.679688 36.707031 16.757812 C 36.816406 16.835938 36.886719 16.949219 36.910156 17.097656 C 36.933594 17.242188 36.902344 17.363281 36.820312 17.46875 C 36.734375 17.570312 36.621094 17.632812 36.480469 17.65625 L 33.914062 18.066406 L 33.972656 17.964844 L 34.34375 20.304688 L 34.261719 20.238281 L 37.28125 19.753906 C 37.421875 19.730469 37.550781 19.761719 37.664062 19.84375 C 37.777344 19.925781 37.84375 20.03125 37.863281 20.15625 C 37.886719 20.300781 37.855469 20.425781 37.773438 20.53125 C 37.691406 20.636719 37.578125 20.703125 37.4375 20.726562 L 33.941406 21.285156 C 33.800781 21.308594 33.671875 21.277344 33.554688 21.195312 C 33.4375 21.113281 33.367188 21 33.34375 20.851562 L 32.378906 14.792969 C 32.355469 14.640625 32.382812 14.511719 32.46875 14.398438 C 32.554688 14.28125 32.667969 14.214844 32.8125 14.191406 Z M 32.8125 14.191406 " fill-opacity="1" fill-rule="nonzero"/><path fill="#a65236" d="M 46.089844 12.03125 C 46.226562 12.011719 46.359375 12.039062 46.488281 12.121094 C 46.617188 12.199219 46.695312 12.324219 46.722656 12.492188 C 46.730469 12.539062 46.730469 12.597656 46.722656 12.667969 L 45.617188 19.082031 C 45.601562 19.1875 45.554688 19.277344 45.472656 19.34375 C 45.394531 19.410156 45.308594 19.457031 45.214844 19.476562 C 45.121094 19.492188 45.023438 19.480469 44.921875 19.441406 C 44.816406 19.402344 44.734375 19.335938 44.667969 19.234375 L 42.476562 15.738281 L 42.574219 15.765625 L 41.585938 19.726562 C 41.550781 19.84375 41.492188 19.9375 41.410156 20.003906 C 41.328125 20.074219 41.234375 20.117188 41.132812 20.132812 C 41.046875 20.140625 40.953125 20.125 40.855469 20.082031 C 40.761719 20.042969 40.6875 19.976562 40.636719 19.878906 L 37.597656 14.132812 C 37.566406 14.066406 37.546875 14.011719 37.539062 13.964844 C 37.515625 13.792969 37.554688 13.652344 37.660156 13.535156 C 37.765625 13.417969 37.882812 13.347656 38.007812 13.328125 C 38.117188 13.308594 38.222656 13.324219 38.320312 13.367188 C 38.421875 13.410156 38.496094 13.480469 38.546875 13.582031 L 41.128906 18.53125 L 40.945312 18.5625 L 41.882812 14.546875 C 41.914062 14.4375 41.964844 14.34375 42.039062 14.273438 C 42.113281 14.199219 42.207031 14.15625 42.316406 14.144531 C 42.421875 14.121094 42.523438 14.132812 42.617188 14.179688 C 42.710938 14.226562 42.785156 14.296875 42.839844 14.394531 L 44.878906 17.816406 L 44.738281 17.921875 L 45.648438 12.445312 C 45.667969 12.332031 45.71875 12.238281 45.800781 12.167969 C 45.886719 12.09375 45.984375 12.050781 46.089844 12.03125 Z M 46.089844 12.03125 " fill-opacity="1" fill-rule="nonzero"/><path fill="#a65236" d="M 50.890625 18.671875 C 50.40625 18.75 49.960938 18.753906 49.5625 18.675781 C 49.164062 18.601562 48.769531 18.4375 48.375 18.183594 C 48.292969 18.140625 48.226562 18.082031 48.179688 18.011719 C 48.128906 17.941406 48.097656 17.863281 48.085938 17.78125 C 48.0625 17.652344 48.09375 17.53125 48.171875 17.414062 C 48.25 17.296875 48.359375 17.230469 48.5 17.207031 C 48.609375 17.1875 48.714844 17.210938 48.820312 17.269531 C 49.113281 17.464844 49.410156 17.601562 49.710938 17.675781 C 50.007812 17.753906 50.347656 17.761719 50.722656 17.703125 C 50.992188 17.660156 51.234375 17.574219 51.445312 17.453125 C 51.65625 17.328125 51.820312 17.179688 51.929688 17.011719 C 52.042969 16.839844 52.082031 16.65625 52.050781 16.460938 C 52.011719 16.21875 51.910156 16.027344 51.746094 15.890625 C 51.582031 15.753906 51.363281 15.65625 51.085938 15.589844 C 50.8125 15.527344 50.484375 15.488281 50.109375 15.472656 C 49.765625 15.464844 49.449219 15.429688 49.164062 15.363281 C 48.882812 15.300781 48.632812 15.199219 48.417969 15.0625 C 48.203125 14.929688 48.027344 14.753906 47.890625 14.539062 C 47.75 14.328125 47.660156 14.066406 47.609375 13.765625 C 47.542969 13.351562 47.597656 12.980469 47.765625 12.648438 C 47.933594 12.316406 48.1875 12.039062 48.535156 11.816406 C 48.878906 11.597656 49.28125 11.449219 49.746094 11.375 C 50.171875 11.304688 50.578125 11.308594 50.972656 11.378906 C 51.363281 11.453125 51.691406 11.582031 51.957031 11.769531 C 52.140625 11.882812 52.246094 12.023438 52.269531 12.1875 C 52.289062 12.308594 52.257812 12.429688 52.179688 12.546875 C 52.097656 12.667969 51.992188 12.738281 51.863281 12.761719 C 51.769531 12.773438 51.683594 12.761719 51.609375 12.71875 C 51.484375 12.621094 51.320312 12.539062 51.125 12.476562 C 50.929688 12.417969 50.722656 12.371094 50.507812 12.34375 C 50.292969 12.316406 50.089844 12.316406 49.902344 12.347656 C 49.597656 12.394531 49.347656 12.480469 49.144531 12.597656 C 48.941406 12.71875 48.796875 12.859375 48.703125 13.023438 C 48.613281 13.1875 48.582031 13.367188 48.613281 13.5625 C 48.652344 13.792969 48.746094 13.96875 48.902344 14.097656 C 49.054688 14.226562 49.257812 14.316406 49.507812 14.367188 C 49.757812 14.421875 50.042969 14.460938 50.355469 14.488281 C 50.742188 14.507812 51.085938 14.546875 51.394531 14.601562 C 51.707031 14.65625 51.972656 14.746094 52.199219 14.871094 C 52.429688 15 52.613281 15.171875 52.761719 15.390625 C 52.90625 15.609375 53.007812 15.894531 53.0625 16.246094 C 53.125 16.652344 53.070312 17.023438 52.886719 17.367188 C 52.707031 17.707031 52.445312 17.992188 52.097656 18.21875 C 51.75 18.449219 51.347656 18.597656 50.890625 18.671875 Z M 50.890625 18.671875 " fill-opacity="1" fill-rule="nonzero"/><path fill="#a65236" d="M 21.363281 14.171875 C 21.285156 14.171875 21.21875 14.113281 21.203125 14.035156 C 21.191406 13.949219 21.25 13.867188 21.335938 13.851562 L 53.964844 8.398438 C 54.050781 8.382812 54.132812 8.441406 54.148438 8.527344 C 54.164062 8.617188 54.101562 8.699219 54.015625 8.714844 L 21.390625 14.167969 C 21.378906 14.167969 21.371094 14.171875 21.363281 14.171875 Z M 21.363281 14.171875 " fill-opacity="1" fill-rule="nonzero"/><path fill="#a65236" d="M 23.265625 25.613281 C 23.191406 25.613281 23.125 25.558594 23.109375 25.480469 C 23.09375 25.394531 23.152344 25.308594 23.238281 25.292969 L 55.753906 19.210938 C 55.839844 19.191406 55.925781 19.25 55.941406 19.335938 C 55.957031 19.425781 55.898438 19.507812 55.8125 19.523438 L 23.296875 25.609375 C 23.285156 25.609375 23.277344 25.613281 23.265625 25.613281 Z M 23.265625 25.613281 " fill-opacity="1" fill-rule="nonzero"/><path fill="#ffc17d" d="M 24.191406 28.410156 L 27.234375 44.878906 L 44.527344 42.671875 L 41.484375 24.808594 Z M 24.191406 28.410156 " fill-opacity="1" fill-rule="nonzero"/><path fill="#a65236" d="M 44.640625 31.285156 C 44.566406 31.285156 44.503906 31.234375 44.492188 31.160156 C 44.480469 31.078125 44.535156 31.003906 44.617188 30.992188 L 57.230469 29.027344 C 57.3125 29.011719 57.386719 29.070312 57.398438 29.148438 C 57.410156 29.230469 57.355469 29.304688 57.277344 29.316406 L 44.660156 31.285156 C 44.65625 31.285156 44.648438 31.285156 44.640625 31.285156 Z M 44.640625 31.285156 " fill-opacity="1" fill-rule="nonzero"/><path fill="#a65236" d="M 44.976562 33.464844 C 44.90625 33.464844 44.84375 33.414062 44.832031 33.339844 C 44.820312 33.261719 44.875 33.183594 44.953125 33.171875 L 57.566406 31.207031 C 57.648438 31.195312 57.722656 31.25 57.734375 31.328125 C 57.75 31.410156 57.695312 31.484375 57.613281 31.5 L 45 33.464844 C 44.992188 33.464844 44.984375 33.464844 44.976562 33.464844 Z M 44.976562 33.464844 " fill-opacity="1" fill-rule="nonzero"/><path fill="#a65236" d="M 45.316406 35.644531 C 45.242188 35.644531 45.179688 35.59375 45.167969 35.519531 C 45.15625 35.441406 45.210938 35.363281 45.292969 35.351562 L 57.90625 33.386719 C 57.984375 33.375 58.0625 33.429688 58.074219 33.511719 C 58.085938 33.589844 58.03125 33.664062 57.949219 33.679688 L 45.335938 35.644531 C 45.328125 35.644531 45.320312 35.644531 45.316406 35.644531 Z M 45.316406 35.644531 " fill-opacity="1" fill-rule="nonzero"/><path fill="#a65236" d="M 45.652344 37.824219 C 45.582031 37.824219 45.519531 37.773438 45.507812 37.699219 C 45.496094 37.621094 45.550781 37.542969 45.628906 37.53125 L 58.242188 35.566406 C 58.324219 35.554688 58.398438 35.609375 58.410156 35.691406 C 58.425781 35.769531 58.367188 35.847656 58.289062 35.859375 L 45.675781 37.824219 C 45.667969 37.824219 45.660156 37.824219 45.652344 37.824219 Z M 45.652344 37.824219 " fill-opacity="1" fill-rule="nonzero"/><path fill="#a65236" d="M 45.988281 40.003906 C 45.917969 40.003906 45.855469 39.953125 45.84375 39.878906 C 45.832031 39.800781 45.886719 39.726562 45.96875 39.710938 L 58.582031 37.746094 C 58.660156 37.734375 58.738281 37.789062 58.75 37.871094 C 58.761719 37.949219 58.707031 38.027344 58.625 38.039062 L 46.011719 40.003906 C 46.003906 40.003906 45.996094 40.003906 45.988281 40.003906 Z M 45.988281 40.003906 " fill-opacity="1" fill-rule="nonzero"/><path fill="#a65236" d="M 29.417969 48.609375 C 29.34375 48.609375 29.28125 48.554688 29.269531 48.480469 C 29.257812 48.402344 29.316406 48.324219 29.394531 48.3125 L 42.027344 46.476562 C 42.105469 46.464844 42.183594 46.519531 42.195312 46.601562 C 42.207031 46.683594 42.152344 46.757812 42.070312 46.769531 L 29.4375 48.605469 C 29.429688 48.605469 29.421875 48.609375 29.417969 48.609375 Z M 29.417969 48.609375 " fill-opacity="1" fill-rule="nonzero"/><path fill="#a65236" d="M 29.730469 50.792969 C 29.660156 50.792969 29.597656 50.738281 29.585938 50.664062 C 29.574219 50.585938 29.628906 50.507812 29.710938 50.496094 L 42.34375 48.660156 C 42.421875 48.648438 42.5 48.703125 42.511719 48.785156 C 42.523438 48.867188 42.464844 48.941406 42.386719 48.953125 L 29.753906 50.789062 C 29.746094 50.789062 29.738281 50.792969 29.730469 50.792969 Z M 29.730469 50.792969 " fill-opacity="1" fill-rule="nonzero"/><path fill="#a65236" d="M 30.046875 52.976562 C 29.976562 52.976562 29.914062 52.921875 29.902344 52.847656 C 29.890625 52.769531 29.945312 52.691406 30.027344 52.679688 L 42.660156 50.84375 C 42.738281 50.832031 42.8125 50.886719 42.824219 50.96875 C 42.835938 51.050781 42.78125 51.125 42.703125 51.136719 L 30.070312 52.972656 C 30.0625 52.972656 30.054688 52.976562 30.046875 52.976562 Z M 30.046875 52.976562 " fill-opacity="1" fill-rule="nonzero"/><path fill="#a65236" d="M 30.363281 55.15625 C 30.292969 55.15625 30.226562 55.105469 30.21875 55.03125 C 30.207031 54.949219 30.261719 54.875 30.34375 54.863281 L 42.976562 53.027344 C 43.054688 53.015625 43.128906 53.070312 43.140625 53.152344 C 43.152344 53.230469 43.097656 53.308594 43.015625 53.320312 L 30.382812 55.15625 C 30.378906 55.15625 30.371094 55.15625 30.363281 55.15625 Z M 30.363281 55.15625 " fill-opacity="1" fill-rule="nonzero"/><path fill="#a65236" d="M 30.679688 57.339844 C 30.605469 57.339844 30.542969 57.289062 30.535156 57.214844 C 30.523438 57.132812 30.578125 57.058594 30.65625 57.046875 L 43.289062 55.210938 C 43.371094 55.199219 43.445312 55.253906 43.457031 55.335938 C 43.46875 55.414062 43.414062 55.492188 43.332031 55.503906 L 30.699219 57.339844 C 30.691406 57.339844 30.6875 57.339844 30.679688 57.339844 Z M 30.679688 57.339844 " fill-opacity="1" fill-rule="nonzero"/><path fill="#a65236" d="M 47.082031 45.972656 C 47.007812 45.972656 46.945312 45.917969 46.933594 45.847656 C 46.921875 45.765625 46.976562 45.691406 47.058594 45.675781 L 59.679688 43.753906 C 59.757812 43.742188 59.832031 43.796875 59.847656 43.875 C 59.859375 43.957031 59.804688 44.03125 59.722656 44.046875 L 47.101562 45.96875 C 47.09375 45.96875 47.085938 45.972656 47.082031 45.972656 Z M 47.082031 45.972656 " fill-opacity="1" fill-rule="nonzero"/><path fill="#a65236" d="M 47.410156 48.152344 C 47.339844 48.152344 47.277344 48.101562 47.265625 48.027344 C 47.253906 47.945312 47.308594 47.871094 47.390625 47.859375 L 60.007812 45.933594 C 60.089844 45.925781 60.164062 45.976562 60.175781 46.058594 C 60.1875 46.140625 60.132812 46.214844 60.054688 46.226562 L 47.433594 48.152344 C 47.425781 48.152344 47.417969 48.152344 47.410156 48.152344 Z M 47.410156 48.152344 " fill-opacity="1" fill-rule="nonzero"/><path fill="#a65236" d="M 47.742188 50.332031 C 47.667969 50.332031 47.605469 50.28125 47.597656 50.207031 C 47.582031 50.128906 47.640625 50.050781 47.71875 50.039062 L 60.339844 48.113281 C 60.421875 48.105469 60.496094 48.160156 60.507812 48.238281 C 60.519531 48.320312 60.464844 48.394531 60.382812 48.40625 L 47.765625 50.332031 C 47.757812 50.332031 47.75 50.332031 47.742188 50.332031 Z M 47.742188 50.332031 " fill-opacity="1" fill-rule="nonzero"/><path fill="#a65236" d="M 48.070312 52.515625 C 48 52.515625 47.9375 52.460938 47.925781 52.390625 C 47.914062 52.308594 47.96875 52.234375 48.050781 52.222656 L 60.667969 50.296875 C 60.75 50.285156 60.824219 50.339844 60.835938 50.421875 C 60.851562 50.5 60.792969 50.574219 60.714844 50.589844 L 48.09375 52.511719 C 48.085938 52.515625 48.078125 52.515625 48.070312 52.515625 Z M 48.070312 52.515625 " fill-opacity="1" fill-rule="nonzero"/><path fill="#a65236" d="M 48.402344 54.695312 C 48.332031 54.695312 48.269531 54.644531 48.257812 54.570312 C 48.246094 54.488281 48.300781 54.414062 48.378906 54.402344 L 61 52.476562 C 61.082031 52.46875 61.15625 52.519531 61.167969 52.601562 C 61.179688 52.683594 61.125 52.757812 61.046875 52.769531 L 48.425781 54.695312 C 48.417969 54.695312 48.410156 54.695312 48.402344 54.695312 Z M 48.402344 54.695312 " fill-opacity="1" fill-rule="nonzero"/><path fill="#a65236" d="M 43.46875 24.835938 L 44.039062 28.761719 L 56.84375 26.390625 L 56.191406 22.546875 Z M 43.46875 24.835938 " fill-opacity="1" fill-rule="nonzero"/><path fill="#faded3" d="M 48.933594 64.761719 C 47.960938 64.761719 47.167969 63.964844 47.167969 62.988281 C 47.167969 62.011719 47.960938 61.21875 48.933594 61.21875 C 49.90625 61.21875 50.699219 62.011719 50.699219 62.988281 C 50.699219 63.964844 49.90625 64.761719 48.933594 64.761719 Z M 48.933594 61.378906 C 48.046875 61.378906 47.328125 62.101562 47.328125 62.988281 C 47.328125 63.878906 48.046875 64.601562 48.933594 64.601562 C 49.820312 64.601562 50.539062 63.878906 50.539062 62.988281 C 50.539062 62.101562 49.820312 61.378906 48.933594 61.378906 Z M 48.933594 61.378906 " fill-opacity="1" fill-rule="nonzero"/><path fill="#331510" d="M 28.027344 68.035156 L 26.777344 68.164062 C 25.867188 68.261719 25.035156 67.644531 24.863281 66.742188 L 14.421875 12.535156 C 14.234375 11.554688 14.894531 10.609375 15.878906 10.453125 L 16.601562 10.339844 Z M 28.027344 68.035156 " fill-opacity="1" fill-rule="nonzero"/><path fill="#ffffff" d="M 47.96875 58.28125 L 37.941406 59.226562 L 39.074219 43.582031 L 40.363281 40.058594 L 43.734375 39.734375 L 45.082031 41.804688 Z M 47.96875 58.28125 " fill-opacity="1" fill-rule="nonzero"/><path fill="#331510" d="M 45.082031 41.804688 C 43.117188 42.523438 41.125 43.128906 39.074219 43.582031 L 39.320312 40.160156 L 44.707031 39.644531 Z M 45.082031 41.804688 " fill-opacity="1" fill-rule="nonzero"/><path fill="#ffffff" d="M 67.714844 40.84375 L 41.476562 41.699219 L 37.636719 40.214844 L 35.496094 32.335938 L 39.511719 27.652344 L 61.058594 12.976562 Z M 67.714844 40.84375 " fill-opacity="1" fill-rule="nonzero"/><path fill="#d3542b" d="M 67.917969 40.738281 C 66.304688 41.089844 64.394531 39.210938 62.746094 36.007812 L 62.511719 28.324219 L 59.136719 22.78125 C 58.667969 17.296875 59.644531 13.101562 61.761719 12.632812 C 64.492188 12.035156 68.082031 17.835938 69.78125 25.597656 C 71.476562 33.355469 70.648438 40.136719 67.917969 40.738281 Z M 67.917969 40.738281 " fill-opacity="1" fill-rule="nonzero"/><path fill="#d3542b" d="M 41.476562 41.699219 L 35.496094 41.894531 L 33.550781 37.304688 L 33.25 31.921875 L 39.511719 27.652344 C 38.746094 32.386719 39.445312 37.355469 41.476562 41.699219 Z M 41.476562 41.699219 " fill-opacity="1" fill-rule="nonzero"/><path fill="#faded3" d="M 66.675781 30.34375 L 62.746094 36.007812 C 61.609375 33.792969 60.515625 30.882812 59.820312 27.710938 C 59.441406 25.976562 59.273438 24.277344 59.136719 22.78125 L 64.824219 23.515625 C 65.300781 23.578125 65.6875 23.9375 65.789062 24.410156 L 66.851562 29.457031 C 66.917969 29.765625 66.851562 30.085938 66.675781 30.34375 Z M 66.675781 30.34375 " fill-opacity="1" fill-rule="nonzero"/><path fill="#d3542b" d="M 66.992188 31.480469 C 65.59375 30.566406 64.605469 29.105469 64.28125 27.464844 C 63.953125 25.824219 64.308594 24.09375 65.25 22.714844 L 65.511719 22.898438 C 64.632812 24.1875 64.289062 25.871094 64.59375 27.402344 C 64.898438 28.9375 65.859375 30.359375 67.164062 31.210938 Z M 66.992188 31.480469 " fill-opacity="1" fill-rule="nonzero"/><path fill="#331510" d="M 35.496094 41.894531 L 33.25 31.921875 C 33.25 31.921875 30.296875 34.132812 30.992188 37.621094 C 31.816406 41.761719 35.496094 41.894531 35.496094 41.894531 Z M 35.496094 41.894531 " fill-opacity="1" fill-rule="nonzero"/><path fill="#331510" d="M 12.179688 34.339844 L 16.34375 41.933594 C 17.257812 43.597656 16.648438 45.707031 14.988281 46.621094 L 11.523438 48.535156 C 9.867188 49.449219 7.761719 48.839844 6.847656 47.175781 L 2.683594 39.582031 C 2.265625 38.816406 2.167969 37.960938 2.34375 37.167969 C 2.371094 37.039062 2.410156 36.910156 2.453125 36.777344 C 2.722656 36.003906 3.265625 35.316406 4.039062 34.890625 L 7.503906 32.980469 C 8.273438 32.554688 9.144531 32.457031 9.941406 32.644531 C 10.074219 32.675781 10.203125 32.714844 10.328125 32.757812 C 11.089844 33.035156 11.757812 33.574219 12.179688 34.339844 Z M 12.179688 34.339844 " fill-opacity="1" fill-rule="nonzero"/><path fill="#ffaa94" d="M 4.308594 42.542969 L 13.804688 37.304688 L 13.941406 37.554688 L 4.445312 42.796875 Z M 4.308594 42.542969 " fill-opacity="1" fill-rule="nonzero"/><path fill="#ffaa94" d="M 10.328125 32.757812 L 2.34375 37.167969 C 2.371094 37.039062 2.410156 36.910156 2.453125 36.777344 L 9.941406 32.644531 C 10.074219 32.675781 10.203125 32.714844 10.328125 32.757812 Z M 10.328125 32.757812 " fill-opacity="1" fill-rule="nonzero"/><path fill="#a65236" d="M 27.671875 70.925781 L 24.65625 70.925781 L 17.761719 59.601562 L 15.816406 56.394531 L 15.460938 55.8125 L 19.023438 53.929688 L 19.296875 54.46875 L 19.710938 55.28125 L 24.449219 64.59375 L 26.253906 68.144531 L 27.585938 70.753906 L 27.648438 70.882812 Z M 27.671875 70.925781 " fill-opacity="1" fill-rule="nonzero"/><path fill="#360e07" d="M 19.710938 55.28125 C 19.152344 56.761719 18.503906 58.203125 17.765625 59.601562 L 15.460938 55.8125 L 19.023438 53.929688 Z M 19.710938 55.28125 " fill-opacity="1" fill-rule="nonzero"/><path fill="#d3542b" d="M 5.882812 49.636719 L 18.910156 42.445312 C 19.546875 42.09375 20.351562 42.328125 20.699219 42.964844 L 24.585938 50.042969 C 24.9375 50.683594 24.703125 51.488281 24.066406 51.839844 L 11.210938 58.9375 C 10.582031 59.28125 9.792969 59.0625 9.433594 58.441406 C 8.417969 56.675781 6.441406 53.261719 5.382812 51.46875 C 5.003906 50.828125 5.226562 49.996094 5.882812 49.636719 Z M 5.882812 49.636719 " fill-opacity="1" fill-rule="nonzero"/><path fill="#faded3" d="M 20.734375 45.316406 L 19.738281 43.5 L 16.246094 45.425781 L 16.238281 45.429688 L 15.027344 46.101562 L 13.042969 47.199219 L 9.851562 48.957031 L 6.523438 50.792969 L 6.460938 50.828125 L 10.449219 58.097656 L 13.042969 56.667969 L 21.972656 51.738281 L 22.445312 51.476562 L 23.664062 50.804688 L 23.726562 50.769531 Z M 22.339844 51.367188 L 21.941406 51.589844 L 13.042969 56.5 L 10.503906 57.902344 L 6.65625 50.882812 L 10.167969 48.945312 L 10.171875 48.945312 L 13.042969 47.359375 L 15.183594 46.175781 L 16.0625 45.691406 L 16.066406 45.691406 L 19.679688 43.695312 L 20.824219 45.78125 L 23.53125 50.710938 Z M 22.339844 51.367188 " fill-opacity="1" fill-rule="nonzero"/><g fill="#491719" fill-opacity="1"><g transform="translate(78.520096, 55.785077)"><g><path d="M 16.46875 -18.46875 C 16.46875 -16.675781 16.421875 -14.878906 16.328125 -13.078125 C 16.242188 -11.285156 16.140625 -9.5 16.015625 -7.71875 C 15.992188 -7.394531 15.972656 -6.957031 15.953125 -6.40625 C 15.929688 -5.851562 15.882812 -5.257812 15.8125 -4.625 C 15.75 -4 15.664062 -3.363281 15.5625 -2.71875 C 15.457031 -2.070312 15.289062 -1.484375 15.0625 -0.953125 C 14.832031 -0.421875 14.539062 0.0078125 14.1875 0.34375 C 13.832031 0.675781 13.394531 0.84375 12.875 0.84375 C 12.425781 0.84375 12.023438 0.742188 11.671875 0.546875 C 11.316406 0.359375 11.019531 0.109375 10.78125 -0.203125 C 10.539062 -0.515625 10.359375 -0.867188 10.234375 -1.265625 C 10.109375 -1.671875 10.046875 -2.085938 10.046875 -2.515625 C 10.046875 -3.222656 10.066406 -3.9375 10.109375 -4.65625 C 10.148438 -5.382812 10.210938 -6.101562 10.296875 -6.8125 L 7.109375 -6.484375 C 7.035156 -5.929688 6.960938 -5.257812 6.890625 -4.46875 C 6.816406 -3.6875 6.664062 -2.929688 6.4375 -2.203125 C 6.21875 -1.484375 5.878906 -0.863281 5.421875 -0.34375 C 4.972656 0.164062 4.347656 0.421875 3.546875 0.421875 C 3.054688 0.421875 2.648438 0.304688 2.328125 0.078125 C 2.003906 -0.148438 1.742188 -0.441406 1.546875 -0.796875 C 1.359375 -1.148438 1.21875 -1.539062 1.125 -1.96875 C 1.039062 -2.394531 1 -2.804688 1 -3.203125 C 1 -4.492188 1.050781 -5.773438 1.15625 -7.046875 C 1.269531 -8.328125 1.347656 -9.613281 1.390625 -10.90625 C 1.429688 -12.269531 1.445312 -13.632812 1.4375 -15 C 1.425781 -16.363281 1.441406 -17.734375 1.484375 -19.109375 C 1.503906 -19.566406 1.519531 -20.09375 1.53125 -20.6875 C 1.539062 -21.289062 1.613281 -21.859375 1.75 -22.390625 C 1.894531 -22.921875 2.132812 -23.367188 2.46875 -23.734375 C 2.800781 -24.097656 3.300781 -24.28125 3.96875 -24.28125 C 4.894531 -24.28125 5.59375 -24.035156 6.0625 -23.546875 C 6.539062 -23.066406 6.875 -22.46875 7.0625 -21.75 C 7.257812 -21.03125 7.359375 -20.265625 7.359375 -19.453125 C 7.359375 -18.648438 7.359375 -17.925781 7.359375 -17.28125 C 7.359375 -16.414062 7.335938 -15.566406 7.296875 -14.734375 C 7.253906 -13.910156 7.210938 -13.078125 7.171875 -12.234375 L 10.625 -12.75 C 10.644531 -13.800781 10.664062 -14.84375 10.6875 -15.875 C 10.707031 -16.914062 10.75 -17.953125 10.8125 -18.984375 C 10.832031 -19.484375 10.851562 -20.007812 10.875 -20.5625 C 10.894531 -21.125 10.976562 -21.640625 11.125 -22.109375 C 11.28125 -22.585938 11.535156 -22.984375 11.890625 -23.296875 C 12.253906 -23.609375 12.789062 -23.765625 13.5 -23.765625 C 14.101562 -23.765625 14.59375 -23.59375 14.96875 -23.25 C 15.34375 -22.90625 15.640625 -22.484375 15.859375 -21.984375 C 16.085938 -21.492188 16.242188 -20.96875 16.328125 -20.40625 C 16.421875 -19.84375 16.46875 -19.335938 16.46875 -18.890625 Z M 16.46875 -18.46875 "/></g></g></g><g fill="#491719" fill-opacity="1"><g transform="translate(96.147918, 55.785077)"><g><path d="M 7.109375 0.9375 C 6.003906 0.9375 5.039062 0.644531 4.21875 0.0625 C 3.40625 -0.519531 2.71875 -1.257812 2.15625 -2.15625 C 1.601562 -3.0625 1.1875 -4.066406 0.90625 -5.171875 C 0.625 -6.285156 0.484375 -7.378906 0.484375 -8.453125 C 0.484375 -9.597656 0.625 -10.773438 0.90625 -11.984375 C 1.1875 -13.203125 1.613281 -14.3125 2.1875 -15.3125 C 2.769531 -16.320312 3.515625 -17.144531 4.421875 -17.78125 C 5.328125 -18.414062 6.40625 -18.734375 7.65625 -18.734375 C 8.851562 -18.734375 9.878906 -18.398438 10.734375 -17.734375 C 11.585938 -17.078125 12.269531 -16.257812 12.78125 -15.28125 C 13.300781 -14.300781 13.664062 -13.226562 13.875 -12.0625 C 14.09375 -10.90625 14.171875 -9.8125 14.109375 -8.78125 C 14.046875 -7.644531 13.867188 -6.492188 13.578125 -5.328125 C 13.285156 -4.160156 12.859375 -3.113281 12.296875 -2.1875 C 11.742188 -1.269531 11.035156 -0.519531 10.171875 0.0625 C 9.304688 0.644531 8.285156 0.9375 7.109375 0.9375 Z M 7.421875 -13.65625 C 7.097656 -13.65625 6.8125 -13.484375 6.5625 -13.140625 C 6.320312 -12.796875 6.117188 -12.375 5.953125 -11.875 C 5.796875 -11.382812 5.671875 -10.863281 5.578125 -10.3125 C 5.492188 -9.769531 5.453125 -9.289062 5.453125 -8.875 C 5.453125 -8.363281 5.5 -7.804688 5.59375 -7.203125 C 5.695312 -6.597656 5.832031 -6.039062 6 -5.53125 C 6.175781 -5.03125 6.382812 -4.613281 6.625 -4.28125 C 6.875 -3.945312 7.160156 -3.78125 7.484375 -3.78125 C 7.828125 -3.78125 8.125 -3.941406 8.375 -4.265625 C 8.625 -4.585938 8.820312 -4.992188 8.96875 -5.484375 C 9.125 -5.984375 9.234375 -6.523438 9.296875 -7.109375 C 9.359375 -7.703125 9.390625 -8.257812 9.390625 -8.78125 C 9.390625 -9.257812 9.347656 -9.78125 9.265625 -10.34375 C 9.179688 -10.914062 9.054688 -11.445312 8.890625 -11.9375 C 8.734375 -12.4375 8.53125 -12.847656 8.28125 -13.171875 C 8.03125 -13.492188 7.742188 -13.65625 7.421875 -13.65625 Z M 7.421875 -13.65625 "/></g></g></g><g fill="#491719" fill-opacity="1"><g transform="translate(110.934627, 55.785077)"><g><path d="M 12.171875 -12.078125 C 11.867188 -12.054688 11.609375 -12.082031 11.390625 -12.15625 C 11.179688 -12.226562 10.96875 -12.3125 10.75 -12.40625 C 10.5625 -12.488281 10.367188 -12.566406 10.171875 -12.640625 C 9.972656 -12.710938 9.757812 -12.738281 9.53125 -12.71875 C 9.09375 -12.695312 8.707031 -12.578125 8.375 -12.359375 C 8.039062 -12.148438 7.738281 -11.882812 7.46875 -11.5625 C 7.207031 -11.238281 6.976562 -10.875 6.78125 -10.46875 C 6.582031 -10.070312 6.429688 -9.679688 6.328125 -9.296875 C 6.265625 -9.035156 6.21875 -8.640625 6.1875 -8.109375 C 6.15625 -7.585938 6.140625 -7.023438 6.140625 -6.421875 C 6.117188 -5.796875 6.109375 -5.203125 6.109375 -4.640625 C 6.109375 -4.085938 6.082031 -3.648438 6.03125 -3.328125 C 6.007812 -2.984375 5.957031 -2.578125 5.875 -2.109375 C 5.789062 -1.648438 5.65625 -1.210938 5.46875 -0.796875 C 5.289062 -0.390625 5.050781 -0.0507812 4.75 0.21875 C 4.445312 0.5 4.054688 0.640625 3.578125 0.640625 C 3.210938 0.640625 2.894531 0.53125 2.625 0.3125 C 2.363281 0.101562 2.140625 -0.175781 1.953125 -0.53125 C 1.765625 -0.882812 1.613281 -1.296875 1.5 -1.765625 C 1.382812 -2.242188 1.296875 -2.734375 1.234375 -3.234375 C 1.160156 -3.742188 1.109375 -4.253906 1.078125 -4.765625 C 1.046875 -5.285156 1.023438 -5.773438 1.015625 -6.234375 C 1.003906 -6.703125 1.003906 -7.128906 1.015625 -7.515625 C 1.023438 -7.910156 1.03125 -8.222656 1.03125 -8.453125 C 1.007812 -9.210938 0.972656 -9.972656 0.921875 -10.734375 C 0.867188 -11.492188 0.84375 -12.253906 0.84375 -13.015625 C 0.84375 -13.484375 0.863281 -14.007812 0.90625 -14.59375 C 0.945312 -15.175781 1.0625 -15.71875 1.25 -16.21875 C 1.445312 -16.726562 1.734375 -17.15625 2.109375 -17.5 C 2.492188 -17.84375 3.019531 -18.015625 3.6875 -18.015625 C 4.050781 -18.015625 4.359375 -17.894531 4.609375 -17.65625 C 4.867188 -17.425781 5.078125 -17.132812 5.234375 -16.78125 C 5.398438 -16.4375 5.523438 -16.070312 5.609375 -15.6875 C 5.703125 -15.300781 5.757812 -14.945312 5.78125 -14.625 C 6.289062 -15.46875 6.867188 -16.148438 7.515625 -16.671875 C 8.160156 -17.203125 9.003906 -17.488281 10.046875 -17.53125 C 10.554688 -17.550781 11.0625 -17.5 11.5625 -17.375 C 12.070312 -17.257812 12.535156 -17.066406 12.953125 -16.796875 C 13.378906 -16.535156 13.726562 -16.1875 14 -15.75 C 14.269531 -15.320312 14.414062 -14.816406 14.4375 -14.234375 C 14.476562 -13.546875 14.269531 -13.019531 13.8125 -12.65625 C 13.363281 -12.289062 12.816406 -12.097656 12.171875 -12.078125 Z M 12.171875 -12.078125 "/></g></g></g><g fill="#491719" fill-opacity="1"><g transform="translate(124.881915, 55.785077)"><g><path d="M 6.296875 -22.53125 C 6.296875 -22.226562 6.210938 -21.957031 6.046875 -21.71875 C 5.890625 -21.488281 5.679688 -21.28125 5.421875 -21.09375 C 5.160156 -20.914062 4.878906 -20.773438 4.578125 -20.671875 C 4.285156 -20.578125 4.007812 -20.53125 3.75 -20.53125 C 3.3125 -20.53125 2.929688 -20.640625 2.609375 -20.859375 C 2.285156 -21.078125 2.125 -21.410156 2.125 -21.859375 C 2.125 -22.179688 2.203125 -22.460938 2.359375 -22.703125 C 2.523438 -22.953125 2.726562 -23.15625 2.96875 -23.3125 C 3.207031 -23.476562 3.476562 -23.601562 3.78125 -23.6875 C 4.082031 -23.78125 4.375 -23.828125 4.65625 -23.828125 C 5.0625 -23.828125 5.4375 -23.726562 5.78125 -23.53125 C 6.125 -23.34375 6.296875 -23.007812 6.296875 -22.53125 Z M 6.546875 -11.5625 C 6.546875 -11.257812 6.546875 -10.941406 6.546875 -10.609375 C 6.546875 -10.273438 6.535156 -9.957031 6.515625 -9.65625 C 6.492188 -9.289062 6.484375 -8.800781 6.484375 -8.1875 C 6.484375 -7.570312 6.460938 -6.910156 6.421875 -6.203125 C 6.378906 -5.492188 6.304688 -4.769531 6.203125 -4.03125 C 6.109375 -3.300781 5.953125 -2.632812 5.734375 -2.03125 C 5.523438 -1.425781 5.242188 -0.9375 4.890625 -0.5625 C 4.535156 -0.1875 4.085938 0.0078125 3.546875 0.03125 C 3.140625 0.0507812 2.796875 -0.109375 2.515625 -0.453125 C 2.234375 -0.796875 2 -1.238281 1.8125 -1.78125 C 1.632812 -2.332031 1.503906 -2.945312 1.421875 -3.625 C 1.335938 -4.3125 1.269531 -4.96875 1.21875 -5.59375 C 1.175781 -6.226562 1.15625 -6.816406 1.15625 -7.359375 C 1.15625 -7.898438 1.15625 -8.300781 1.15625 -8.5625 C 1.15625 -8.90625 1.15625 -9.394531 1.15625 -10.03125 C 1.15625 -10.664062 1.175781 -11.347656 1.21875 -12.078125 C 1.269531 -12.804688 1.351562 -13.546875 1.46875 -14.296875 C 1.582031 -15.054688 1.753906 -15.75 1.984375 -16.375 C 2.210938 -17 2.507812 -17.503906 2.875 -17.890625 C 3.238281 -18.273438 3.703125 -18.46875 4.265625 -18.46875 C 4.847656 -18.46875 5.285156 -18.175781 5.578125 -17.59375 C 5.878906 -17.007812 6.101562 -16.332031 6.25 -15.5625 C 6.40625 -14.789062 6.492188 -14.019531 6.515625 -13.25 C 6.535156 -12.488281 6.546875 -11.925781 6.546875 -11.5625 Z M 6.546875 -11.5625 "/></g></g></g><g fill="#491719" fill-opacity="1"><g transform="translate(132.75955, 55.785077)"><g><path d="M 15.46875 -3.03125 C 15.46875 -2.601562 15.289062 -2.226562 14.9375 -1.90625 C 14.582031 -1.582031 14.128906 -1.289062 13.578125 -1.03125 C 13.023438 -0.769531 12.398438 -0.550781 11.703125 -0.375 C 11.003906 -0.207031 10.316406 -0.0703125 9.640625 0.03125 C 8.960938 0.132812 8.320312 0.210938 7.71875 0.265625 C 7.113281 0.328125 6.628906 0.359375 6.265625 0.359375 C 5.898438 0.359375 5.390625 0.347656 4.734375 0.328125 C 4.078125 0.304688 3.425781 0.222656 2.78125 0.078125 C 2.132812 -0.0546875 1.570312 -0.28125 1.09375 -0.59375 C 0.625 -0.90625 0.390625 -1.34375 0.390625 -1.90625 C 0.390625 -2.332031 0.539062 -2.859375 0.84375 -3.484375 C 1.144531 -4.109375 1.53125 -4.785156 2 -5.515625 C 2.476562 -6.253906 3.003906 -7.003906 3.578125 -7.765625 C 4.160156 -8.523438 4.734375 -9.257812 5.296875 -9.96875 C 5.859375 -10.6875 6.382812 -11.335938 6.875 -11.921875 C 7.375 -12.515625 7.765625 -13.007812 8.046875 -13.40625 C 7.742188 -13.332031 7.359375 -13.238281 6.890625 -13.125 C 6.429688 -13.007812 5.953125 -12.894531 5.453125 -12.78125 C 4.960938 -12.675781 4.484375 -12.585938 4.015625 -12.515625 C 3.554688 -12.441406 3.164062 -12.40625 2.84375 -12.40625 C 2.582031 -12.40625 2.289062 -12.453125 1.96875 -12.546875 C 1.644531 -12.640625 1.335938 -12.769531 1.046875 -12.9375 C 0.753906 -13.113281 0.503906 -13.320312 0.296875 -13.5625 C 0.0976562 -13.800781 0 -14.070312 0 -14.375 C 0 -14.757812 0.171875 -15.117188 0.515625 -15.453125 C 0.859375 -15.785156 1.3125 -16.082031 1.875 -16.34375 C 2.4375 -16.613281 3.0625 -16.851562 3.75 -17.0625 C 4.4375 -17.269531 5.113281 -17.441406 5.78125 -17.578125 C 6.445312 -17.722656 7.082031 -17.828125 7.6875 -17.890625 C 8.289062 -17.953125 8.773438 -17.984375 9.140625 -17.984375 C 9.546875 -17.984375 10.039062 -17.9375 10.625 -17.84375 C 11.207031 -17.757812 11.769531 -17.609375 12.3125 -17.390625 C 12.863281 -17.179688 13.332031 -16.894531 13.71875 -16.53125 C 14.101562 -16.164062 14.296875 -15.703125 14.296875 -15.140625 C 14.296875 -14.972656 14.28125 -14.816406 14.25 -14.671875 C 14.21875 -14.535156 14.179688 -14.378906 14.140625 -14.203125 C 14.097656 -14.054688 13.910156 -13.71875 13.578125 -13.1875 C 13.242188 -12.664062 12.832031 -12.039062 12.34375 -11.3125 C 11.863281 -10.59375 11.335938 -9.816406 10.765625 -8.984375 C 10.191406 -8.160156 9.644531 -7.378906 9.125 -6.640625 C 8.613281 -5.910156 8.164062 -5.265625 7.78125 -4.703125 C 7.394531 -4.148438 7.132812 -3.773438 7 -3.578125 C 7.882812 -3.816406 8.785156 -4.015625 9.703125 -4.171875 C 10.617188 -4.335938 11.53125 -4.421875 12.4375 -4.421875 C 12.644531 -4.421875 12.921875 -4.410156 13.265625 -4.390625 C 13.609375 -4.367188 13.941406 -4.304688 14.265625 -4.203125 C 14.585938 -4.109375 14.867188 -3.96875 15.109375 -3.78125 C 15.347656 -3.601562 15.46875 -3.351562 15.46875 -3.03125 Z M 15.46875 -3.03125 "/></g></g></g><g fill="#491719" fill-opacity="1"><g transform="translate(147.901397, 55.785077)"><g><path d="M 7.109375 0.9375 C 6.003906 0.9375 5.039062 0.644531 4.21875 0.0625 C 3.40625 -0.519531 2.71875 -1.257812 2.15625 -2.15625 C 1.601562 -3.0625 1.1875 -4.066406 0.90625 -5.171875 C 0.625 -6.285156 0.484375 -7.378906 0.484375 -8.453125 C 0.484375 -9.597656 0.625 -10.773438 0.90625 -11.984375 C 1.1875 -13.203125 1.613281 -14.3125 2.1875 -15.3125 C 2.769531 -16.320312 3.515625 -17.144531 4.421875 -17.78125 C 5.328125 -18.414062 6.40625 -18.734375 7.65625 -18.734375 C 8.851562 -18.734375 9.878906 -18.398438 10.734375 -17.734375 C 11.585938 -17.078125 12.269531 -16.257812 12.78125 -15.28125 C 13.300781 -14.300781 13.664062 -13.226562 13.875 -12.0625 C 14.09375 -10.90625 14.171875 -9.8125 14.109375 -8.78125 C 14.046875 -7.644531 13.867188 -6.492188 13.578125 -5.328125 C 13.285156 -4.160156 12.859375 -3.113281 12.296875 -2.1875 C 11.742188 -1.269531 11.035156 -0.519531 10.171875 0.0625 C 9.304688 0.644531 8.285156 0.9375 7.109375 0.9375 Z M 7.421875 -13.65625 C 7.097656 -13.65625 6.8125 -13.484375 6.5625 -13.140625 C 6.320312 -12.796875 6.117188 -12.375 5.953125 -11.875 C 5.796875 -11.382812 5.671875 -10.863281 5.578125 -10.3125 C 5.492188 -9.769531 5.453125 -9.289062 5.453125 -8.875 C 5.453125 -8.363281 5.5 -7.804688 5.59375 -7.203125 C 5.695312 -6.597656 5.832031 -6.039062 6 -5.53125 C 6.175781 -5.03125 6.382812 -4.613281 6.625 -4.28125 C 6.875 -3.945312 7.160156 -3.78125 7.484375 -3.78125 C 7.828125 -3.78125 8.125 -3.941406 8.375 -4.265625 C 8.625 -4.585938 8.820312 -4.992188 8.96875 -5.484375 C 9.125 -5.984375 9.234375 -6.523438 9.296875 -7.109375 C 9.359375 -7.703125 9.390625 -8.257812 9.390625 -8.78125 C 9.390625 -9.257812 9.347656 -9.78125 9.265625 -10.34375 C 9.179688 -10.914062 9.054688 -11.445312 8.890625 -11.9375 C 8.734375 -12.4375 8.53125 -12.847656 8.28125 -13.171875 C 8.03125 -13.492188 7.742188 -13.65625 7.421875 -13.65625 Z M 7.421875 -13.65625 "/></g></g></g><g fill="#491719" fill-opacity="1"><g transform="translate(162.688105, 55.785077)"><g><path d="M 10.140625 0.90625 C 9.773438 0.90625 9.484375 0.738281 9.265625 0.40625 C 9.046875 0.0703125 8.882812 -0.304688 8.78125 -0.734375 C 8.675781 -1.171875 8.609375 -1.609375 8.578125 -2.046875 C 8.546875 -2.492188 8.53125 -2.832031 8.53125 -3.0625 C 8.53125 -3.707031 8.566406 -4.351562 8.640625 -5 C 8.710938 -5.644531 8.796875 -6.289062 8.890625 -6.9375 C 8.992188 -7.582031 9.082031 -8.226562 9.15625 -8.875 C 9.226562 -9.519531 9.265625 -10.164062 9.265625 -10.8125 C 9.265625 -11.070312 9.253906 -11.351562 9.234375 -11.65625 C 9.210938 -11.957031 9.160156 -12.242188 9.078125 -12.515625 C 9.003906 -12.785156 8.878906 -13.003906 8.703125 -13.171875 C 8.535156 -13.347656 8.316406 -13.4375 8.046875 -13.4375 C 7.847656 -13.4375 7.628906 -13.28125 7.390625 -12.96875 C 7.148438 -12.65625 6.925781 -12.296875 6.71875 -11.890625 C 6.519531 -11.492188 6.347656 -11.097656 6.203125 -10.703125 C 6.066406 -10.304688 6 -10.007812 6 -9.8125 C 6 -9.34375 6.003906 -8.863281 6.015625 -8.375 C 6.023438 -7.894531 6.03125 -7.40625 6.03125 -6.90625 L 6.03125 -5.03125 C 6.007812 -4.644531 5.976562 -4.25 5.9375 -3.84375 C 5.894531 -3.4375 5.832031 -3.035156 5.75 -2.640625 C 5.6875 -2.253906 5.585938 -1.882812 5.453125 -1.53125 C 5.328125 -1.175781 5.160156 -0.863281 4.953125 -0.59375 C 4.753906 -0.320312 4.515625 -0.101562 4.234375 0.0625 C 3.953125 0.238281 3.617188 0.328125 3.234375 0.328125 C 2.796875 0.328125 2.4375 0.1875 2.15625 -0.09375 C 1.882812 -0.375 1.660156 -0.734375 1.484375 -1.171875 C 1.316406 -1.617188 1.191406 -2.113281 1.109375 -2.65625 C 1.035156 -3.207031 0.984375 -3.742188 0.953125 -4.265625 C 0.921875 -4.796875 0.910156 -5.28125 0.921875 -5.71875 C 0.929688 -6.164062 0.9375 -6.519531 0.9375 -6.78125 L 0.9375 -8.296875 C 0.9375 -9.117188 0.921875 -9.925781 0.890625 -10.71875 C 0.859375 -11.519531 0.84375 -12.316406 0.84375 -13.109375 C 0.84375 -13.535156 0.847656 -14.082031 0.859375 -14.75 C 0.867188 -15.414062 0.945312 -16.066406 1.09375 -16.703125 C 1.25 -17.335938 1.5 -17.878906 1.84375 -18.328125 C 2.1875 -18.785156 2.691406 -19.015625 3.359375 -19.015625 C 3.660156 -19.015625 3.925781 -18.914062 4.15625 -18.71875 C 4.394531 -18.53125 4.601562 -18.296875 4.78125 -18.015625 C 4.96875 -17.734375 5.117188 -17.429688 5.234375 -17.109375 C 5.359375 -16.785156 5.453125 -16.503906 5.515625 -16.265625 C 5.734375 -16.566406 5.988281 -16.859375 6.28125 -17.140625 C 6.570312 -17.421875 6.898438 -17.664062 7.265625 -17.875 C 7.628906 -18.09375 8.035156 -18.265625 8.484375 -18.390625 C 8.941406 -18.523438 9.460938 -18.59375 10.046875 -18.59375 C 11.140625 -18.59375 11.992188 -18.328125 12.609375 -17.796875 C 13.222656 -17.273438 13.675781 -16.617188 13.96875 -15.828125 C 14.257812 -15.046875 14.4375 -14.203125 14.5 -13.296875 C 14.5625 -12.398438 14.59375 -11.582031 14.59375 -10.84375 C 14.59375 -10.476562 14.5625 -9.9375 14.5 -9.21875 C 14.4375 -8.5 14.332031 -7.703125 14.1875 -6.828125 C 14.050781 -5.953125 13.863281 -5.054688 13.625 -4.140625 C 13.382812 -3.234375 13.101562 -2.398438 12.78125 -1.640625 C 12.457031 -0.890625 12.078125 -0.28125 11.640625 0.1875 C 11.203125 0.664062 10.703125 0.90625 10.140625 0.90625 Z M 10.140625 0.90625 "/></g></g></g><g fill="#000000" fill-opacity="1"><g transform="translate(78.520096, 69.303572)"><g><path d="M -0.078125 -2.34375 L 0.5625 -2.34375 L 1.046875 -1.59375 L 1.53125 -2.34375 L 2.171875 -2.34375 L 1.3125 -1.046875 L 1.3125 0 L 0.78125 0 L 0.78125 -1.046875 Z M -0.078125 -2.34375 "/></g></g></g><g fill="#000000" fill-opacity="1"><g transform="translate(81.136547, 69.303572)"><g><path d="M 0.0625 -1.171875 C 0.0625 -1.515625 0.175781 -1.800781 0.40625 -2.03125 C 0.644531 -2.269531 0.925781 -2.390625 1.25 -2.390625 C 1.570312 -2.390625 1.847656 -2.269531 2.078125 -2.03125 C 2.304688 -1.800781 2.421875 -1.515625 2.421875 -1.171875 C 2.421875 -0.828125 2.304688 -0.535156 2.078125 -0.296875 C 1.859375 -0.0664062 1.582031 0.046875 1.25 0.046875 C 0.90625 0.046875 0.617188 -0.0664062 0.390625 -0.296875 C 0.171875 -0.535156 0.0625 -0.828125 0.0625 -1.171875 Z M 0.640625 -1.171875 C 0.640625 -1.046875 0.65625 -0.929688 0.6875 -0.828125 C 0.726562 -0.734375 0.796875 -0.648438 0.890625 -0.578125 C 0.992188 -0.503906 1.113281 -0.46875 1.25 -0.46875 C 1.445312 -0.46875 1.59375 -0.535156 1.6875 -0.671875 C 1.789062 -0.816406 1.84375 -0.984375 1.84375 -1.171875 C 1.84375 -1.367188 1.789062 -1.535156 1.6875 -1.671875 C 1.59375 -1.804688 1.445312 -1.875 1.25 -1.875 C 1.050781 -1.875 0.898438 -1.804688 0.796875 -1.671875 C 0.691406 -1.535156 0.640625 -1.367188 0.640625 -1.171875 Z M 0.640625 -1.171875 "/></g></g></g><g fill="#000000" fill-opacity="1"><g transform="translate(84.154873, 69.303572)"><g><path d="M 1.96875 -2.34375 L 1.96875 -0.828125 C 1.96875 -0.546875 1.890625 -0.328125 1.734375 -0.171875 C 1.578125 -0.0234375 1.347656 0.046875 1.046875 0.046875 C 0.753906 0.046875 0.53125 -0.0234375 0.375 -0.171875 C 0.21875 -0.328125 0.140625 -0.546875 0.140625 -0.828125 L 0.140625 -2.34375 L 0.671875 -2.34375 L 0.671875 -0.984375 C 0.671875 -0.796875 0.703125 -0.664062 0.765625 -0.59375 C 0.828125 -0.519531 0.925781 -0.484375 1.0625 -0.484375 C 1.195312 -0.484375 1.289062 -0.519531 1.34375 -0.59375 C 1.40625 -0.664062 1.4375 -0.796875 1.4375 -0.984375 L 1.4375 -2.34375 Z M 1.96875 -2.34375 "/></g></g></g><g fill="#000000" fill-opacity="1"><g transform="translate(86.794127, 69.303572)"><g><path d="M 0.171875 -2.34375 L 1.015625 -2.34375 C 1.234375 -2.34375 1.414062 -2.28125 1.5625 -2.15625 C 1.707031 -2.039062 1.78125 -1.875 1.78125 -1.65625 C 1.78125 -1.476562 1.734375 -1.332031 1.640625 -1.21875 C 1.554688 -1.101562 1.441406 -1.019531 1.296875 -0.96875 L 2.109375 0 L 1.421875 0 L 0.703125 -0.921875 L 0.703125 0 L 0.171875 0 Z M 0.703125 -1.3125 L 0.765625 -1.3125 C 0.816406 -1.3125 0.859375 -1.3125 0.890625 -1.3125 C 0.921875 -1.3125 0.957031 -1.316406 1 -1.328125 C 1.050781 -1.335938 1.085938 -1.351562 1.109375 -1.375 C 1.140625 -1.394531 1.164062 -1.425781 1.1875 -1.46875 C 1.207031 -1.507812 1.21875 -1.554688 1.21875 -1.609375 C 1.21875 -1.671875 1.207031 -1.71875 1.1875 -1.75 C 1.164062 -1.789062 1.140625 -1.820312 1.109375 -1.84375 C 1.085938 -1.863281 1.050781 -1.878906 1 -1.890625 C 0.957031 -1.898438 0.921875 -1.90625 0.890625 -1.90625 C 0.859375 -1.914062 0.816406 -1.921875 0.765625 -1.921875 L 0.703125 -1.921875 Z M 0.703125 -1.3125 "/></g></g></g><g fill="#000000" fill-opacity="1"><g transform="translate(89.353574, 69.303572)"><g/></g></g><g fill="#000000" fill-opacity="1"><g transform="translate(90.650395, 69.303572)"><g><path d="M 1.03125 -2.390625 C 1.15625 -2.390625 1.28125 -2.367188 1.40625 -2.328125 C 1.53125 -2.296875 1.617188 -2.257812 1.671875 -2.21875 L 1.765625 -2.171875 L 1.546875 -1.734375 C 1.523438 -1.742188 1.5 -1.757812 1.46875 -1.78125 C 1.445312 -1.800781 1.394531 -1.828125 1.3125 -1.859375 C 1.226562 -1.890625 1.148438 -1.90625 1.078125 -1.90625 C 0.984375 -1.90625 0.910156 -1.882812 0.859375 -1.84375 C 0.816406 -1.800781 0.796875 -1.75 0.796875 -1.6875 C 0.796875 -1.65625 0.804688 -1.625 0.828125 -1.59375 C 0.847656 -1.570312 0.882812 -1.546875 0.9375 -1.515625 C 1 -1.484375 1.050781 -1.457031 1.09375 -1.4375 C 1.132812 -1.414062 1.195312 -1.390625 1.28125 -1.359375 C 1.4375 -1.285156 1.566406 -1.191406 1.671875 -1.078125 C 1.773438 -0.972656 1.828125 -0.851562 1.828125 -0.71875 C 1.828125 -0.582031 1.800781 -0.460938 1.75 -0.359375 C 1.707031 -0.253906 1.644531 -0.175781 1.5625 -0.125 C 1.476562 -0.0703125 1.382812 -0.03125 1.28125 0 C 1.175781 0.03125 1.066406 0.046875 0.953125 0.046875 C 0.847656 0.046875 0.742188 0.0351562 0.640625 0.015625 C 0.546875 -0.00390625 0.460938 -0.03125 0.390625 -0.0625 C 0.328125 -0.09375 0.269531 -0.125 0.21875 -0.15625 C 0.164062 -0.1875 0.128906 -0.210938 0.109375 -0.234375 L 0.0625 -0.265625 L 0.328125 -0.71875 C 0.347656 -0.695312 0.378906 -0.671875 0.421875 -0.640625 C 0.460938 -0.609375 0.535156 -0.566406 0.640625 -0.515625 C 0.742188 -0.472656 0.832031 -0.453125 0.90625 -0.453125 C 1.132812 -0.453125 1.25 -0.53125 1.25 -0.6875 C 1.25 -0.71875 1.238281 -0.742188 1.21875 -0.765625 C 1.207031 -0.796875 1.179688 -0.820312 1.140625 -0.84375 C 1.097656 -0.875 1.0625 -0.894531 1.03125 -0.90625 C 1 -0.925781 0.945312 -0.953125 0.875 -0.984375 C 0.800781 -1.023438 0.75 -1.050781 0.71875 -1.0625 C 0.570312 -1.132812 0.457031 -1.222656 0.375 -1.328125 C 0.300781 -1.429688 0.265625 -1.546875 0.265625 -1.671875 C 0.265625 -1.878906 0.34375 -2.050781 0.5 -2.1875 C 0.65625 -2.320312 0.832031 -2.390625 1.03125 -2.390625 Z M 1.03125 -2.390625 "/></g></g></g><g fill="#000000" fill-opacity="1"><g transform="translate(93.084434, 69.303572)"><g><path d="M 0.703125 -2.34375 L 0.703125 0 L 0.171875 0 L 0.171875 -2.34375 Z M 0.703125 -2.34375 "/></g></g></g><g fill="#000000" fill-opacity="1"><g transform="translate(94.481013, 69.303572)"><g><path d="M 2.109375 0 L 2 -1.390625 L 1.984375 -1.390625 L 1.5 -0.015625 L 1.1875 -0.015625 L 0.703125 -1.390625 L 0.6875 -1.390625 L 0.578125 0 L 0.046875 0 L 0.25 -2.34375 L 0.828125 -2.34375 L 1.34375 -1 L 1.859375 -2.34375 L 2.4375 -2.34375 L 2.640625 0 Z M 2.109375 0 "/></g></g></g><g fill="#000000" fill-opacity="1"><g transform="translate(97.696, 69.303572)"><g><path d="M 0.171875 -2.34375 L 1.03125 -2.34375 C 1.269531 -2.34375 1.460938 -2.28125 1.609375 -2.15625 C 1.753906 -2.03125 1.828125 -1.847656 1.828125 -1.609375 C 1.828125 -1.378906 1.75 -1.195312 1.59375 -1.0625 C 1.445312 -0.9375 1.257812 -0.875 1.03125 -0.875 L 0.703125 -0.875 L 0.703125 0 L 0.171875 0 Z M 0.703125 -1.296875 L 0.859375 -1.296875 C 0.972656 -1.296875 1.066406 -1.316406 1.140625 -1.359375 C 1.222656 -1.410156 1.265625 -1.492188 1.265625 -1.609375 C 1.265625 -1.722656 1.222656 -1.800781 1.140625 -1.84375 C 1.066406 -1.894531 0.972656 -1.921875 0.859375 -1.921875 L 0.703125 -1.921875 Z M 0.703125 -1.296875 "/></g></g></g><g fill="#000000" fill-opacity="1"><g transform="translate(100.112937, 69.303572)"><g><path d="M 0.703125 -2.34375 L 0.703125 -0.46875 L 1.515625 -0.46875 L 1.515625 0 L 0.171875 0 L 0.171875 -2.34375 Z M 0.703125 -2.34375 "/></g></g></g><g fill="#000000" fill-opacity="1"><g transform="translate(102.242008, 69.303572)"><g><path d="M 1.515625 -2.34375 L 1.515625 -1.875 L 0.703125 -1.875 L 0.703125 -1.40625 L 1.484375 -1.40625 L 1.484375 -0.9375 L 0.703125 -0.9375 L 0.703125 -0.46875 L 1.515625 -0.46875 L 1.515625 0 L 0.171875 0 L 0.171875 -2.34375 Z M 1.515625 -2.34375 "/></g></g></g><g fill="#000000" fill-opacity="1"><g transform="translate(104.413833, 69.303572)"><g/></g></g><g fill="#000000" fill-opacity="1"><g transform="translate(105.710654, 69.303572)"><g><path d="M 0.171875 -2.34375 L 1.03125 -2.34375 C 1.269531 -2.34375 1.460938 -2.28125 1.609375 -2.15625 C 1.753906 -2.03125 1.828125 -1.847656 1.828125 -1.609375 C 1.828125 -1.378906 1.75 -1.195312 1.59375 -1.0625 C 1.445312 -0.9375 1.257812 -0.875 1.03125 -0.875 L 0.703125 -0.875 L 0.703125 0 L 0.171875 0 Z M 0.703125 -1.296875 L 0.859375 -1.296875 C 0.972656 -1.296875 1.066406 -1.316406 1.140625 -1.359375 C 1.222656 -1.410156 1.265625 -1.492188 1.265625 -1.609375 C 1.265625 -1.722656 1.222656 -1.800781 1.140625 -1.84375 C 1.066406 -1.894531 0.972656 -1.921875 0.859375 -1.921875 L 0.703125 -1.921875 Z M 0.703125 -1.296875 "/></g></g></g><g fill="#000000" fill-opacity="1"><g transform="translate(108.127591, 69.303572)"><g><path d="M 0.0625 -1.171875 C 0.0625 -1.515625 0.175781 -1.800781 0.40625 -2.03125 C 0.644531 -2.269531 0.925781 -2.390625 1.25 -2.390625 C 1.570312 -2.390625 1.847656 -2.269531 2.078125 -2.03125 C 2.304688 -1.800781 2.421875 -1.515625 2.421875 -1.171875 C 2.421875 -0.828125 2.304688 -0.535156 2.078125 -0.296875 C 1.859375 -0.0664062 1.582031 0.046875 1.25 0.046875 C 0.90625 0.046875 0.617188 -0.0664062 0.390625 -0.296875 C 0.171875 -0.535156 0.0625 -0.828125 0.0625 -1.171875 Z M 0.640625 -1.171875 C 0.640625 -1.046875 0.65625 -0.929688 0.6875 -0.828125 C 0.726562 -0.734375 0.796875 -0.648438 0.890625 -0.578125 C 0.992188 -0.503906 1.113281 -0.46875 1.25 -0.46875 C 1.445312 -0.46875 1.59375 -0.535156 1.6875 -0.671875 C 1.789062 -0.816406 1.84375 -0.984375 1.84375 -1.171875 C 1.84375 -1.367188 1.789062 -1.535156 1.6875 -1.671875 C 1.59375 -1.804688 1.445312 -1.875 1.25 -1.875 C 1.050781 -1.875 0.898438 -1.804688 0.796875 -1.671875 C 0.691406 -1.535156 0.640625 -1.367188 0.640625 -1.171875 Z M 0.640625 -1.171875 "/></g></g></g><g fill="#000000" fill-opacity="1"><g transform="translate(111.145918, 69.303572)"><g><path d="M 0.703125 -2.34375 L 0.703125 -0.46875 L 1.515625 -0.46875 L 1.515625 0 L 0.171875 0 L 0.171875 -2.34375 Z M 0.703125 -2.34375 "/></g></g></g><g fill="#000000" fill-opacity="1"><g transform="translate(113.274991, 69.303572)"><g><path d="M 0.703125 -2.34375 L 0.703125 0 L 0.171875 0 L 0.171875 -2.34375 Z M 0.703125 -2.34375 "/></g></g></g><g fill="#000000" fill-opacity="1"><g transform="translate(114.671572, 69.303572)"><g><path d="M 0.015625 -1.875 L 0.015625 -2.34375 L 1.671875 -2.34375 L 1.671875 -1.875 L 1.109375 -1.875 L 1.109375 0 L 0.578125 0 L 0.578125 -1.875 Z M 0.015625 -1.875 "/></g></g></g><g fill="#000000" fill-opacity="1"><g transform="translate(116.889002, 69.303572)"><g><path d="M 0.703125 -2.34375 L 0.703125 0 L 0.171875 0 L 0.171875 -2.34375 Z M 0.703125 -2.34375 "/></g></g></g><g fill="#000000" fill-opacity="1"><g transform="translate(118.285583, 69.303572)"><g><path d="M 1.421875 -0.484375 C 1.503906 -0.484375 1.582031 -0.492188 1.65625 -0.515625 C 1.726562 -0.546875 1.785156 -0.570312 1.828125 -0.59375 L 1.875 -0.625 L 2.109375 -0.171875 C 2.097656 -0.171875 2.085938 -0.164062 2.078125 -0.15625 C 2.066406 -0.144531 2.035156 -0.125 1.984375 -0.09375 C 1.929688 -0.0703125 1.878906 -0.0507812 1.828125 -0.03125 C 1.773438 -0.0078125 1.703125 0.00390625 1.609375 0.015625 C 1.523438 0.0351562 1.4375 0.046875 1.34375 0.046875 C 1.125 0.046875 0.914062 -0.00390625 0.71875 -0.109375 C 0.519531 -0.222656 0.359375 -0.375 0.234375 -0.5625 C 0.117188 -0.75 0.0625 -0.953125 0.0625 -1.171875 C 0.0625 -1.335938 0.0976562 -1.492188 0.171875 -1.640625 C 0.242188 -1.796875 0.335938 -1.925781 0.453125 -2.03125 C 0.566406 -2.144531 0.703125 -2.234375 0.859375 -2.296875 C 1.015625 -2.359375 1.175781 -2.390625 1.34375 -2.390625 C 1.488281 -2.390625 1.625 -2.367188 1.75 -2.328125 C 1.882812 -2.296875 1.976562 -2.265625 2.03125 -2.234375 L 2.109375 -2.171875 L 1.875 -1.71875 C 1.863281 -1.726562 1.84375 -1.738281 1.8125 -1.75 C 1.789062 -1.769531 1.738281 -1.789062 1.65625 -1.8125 C 1.582031 -1.84375 1.503906 -1.859375 1.421875 -1.859375 C 1.285156 -1.859375 1.164062 -1.835938 1.0625 -1.796875 C 0.96875 -1.753906 0.890625 -1.695312 0.828125 -1.625 C 0.765625 -1.5625 0.71875 -1.488281 0.6875 -1.40625 C 0.65625 -1.332031 0.640625 -1.253906 0.640625 -1.171875 C 0.640625 -0.992188 0.707031 -0.832031 0.84375 -0.6875 C 0.976562 -0.550781 1.171875 -0.484375 1.421875 -0.484375 Z M 1.421875 -0.484375 "/></g></g></g><g fill="#000000" fill-opacity="1"><g transform="translate(120.950486, 69.303572)"><g><path d="M 1.03125 -2.390625 C 1.15625 -2.390625 1.28125 -2.367188 1.40625 -2.328125 C 1.53125 -2.296875 1.617188 -2.257812 1.671875 -2.21875 L 1.765625 -2.171875 L 1.546875 -1.734375 C 1.523438 -1.742188 1.5 -1.757812 1.46875 -1.78125 C 1.445312 -1.800781 1.394531 -1.828125 1.3125 -1.859375 C 1.226562 -1.890625 1.148438 -1.90625 1.078125 -1.90625 C 0.984375 -1.90625 0.910156 -1.882812 0.859375 -1.84375 C 0.816406 -1.800781 0.796875 -1.75 0.796875 -1.6875 C 0.796875 -1.65625 0.804688 -1.625 0.828125 -1.59375 C 0.847656 -1.570312 0.882812 -1.546875 0.9375 -1.515625 C 1 -1.484375 1.050781 -1.457031 1.09375 -1.4375 C 1.132812 -1.414062 1.195312 -1.390625 1.28125 -1.359375 C 1.4375 -1.285156 1.566406 -1.191406 1.671875 -1.078125 C 1.773438 -0.972656 1.828125 -0.851562 1.828125 -0.71875 C 1.828125 -0.582031 1.800781 -0.460938 1.75 -0.359375 C 1.707031 -0.253906 1.644531 -0.175781 1.5625 -0.125 C 1.476562 -0.0703125 1.382812 -0.03125 1.28125 0 C 1.175781 0.03125 1.066406 0.046875 0.953125 0.046875 C 0.847656 0.046875 0.742188 0.0351562 0.640625 0.015625 C 0.546875 -0.00390625 0.460938 -0.03125 0.390625 -0.0625 C 0.328125 -0.09375 0.269531 -0.125 0.21875 -0.15625 C 0.164062 -0.1875 0.128906 -0.210938 0.109375 -0.234375 L 0.0625 -0.265625 L 0.328125 -0.71875 C 0.347656 -0.695312 0.378906 -0.671875 0.421875 -0.640625 C 0.460938 -0.609375 0.535156 -0.566406 0.640625 -0.515625 C 0.742188 -0.472656 0.832031 -0.453125 0.90625 -0.453125 C 1.132812 -0.453125 1.25 -0.53125 1.25 -0.6875 C 1.25 -0.71875 1.238281 -0.742188 1.21875 -0.765625 C 1.207031 -0.796875 1.179688 -0.820312 1.140625 -0.84375 C 1.097656 -0.875 1.0625 -0.894531 1.03125 -0.90625 C 1 -0.925781 0.945312 -0.953125 0.875 -0.984375 C 0.800781 -1.023438 0.75 -1.050781 0.71875 -1.0625 C 0.570312 -1.132812 0.457031 -1.222656 0.375 -1.328125 C 0.300781 -1.429688 0.265625 -1.546875 0.265625 -1.671875 C 0.265625 -1.878906 0.34375 -2.050781 0.5 -2.1875 C 0.65625 -2.320312 0.832031 -2.390625 1.03125 -2.390625 Z M 1.03125 -2.390625 "/></g></g></g><g fill="#000000" fill-opacity="1"><g transform="translate(123.384528, 69.303572)"><g/></g></g><g fill="#000000" fill-opacity="1"><g transform="translate(124.681351, 69.303572)"><g><path d="M 0.171875 -2.34375 L 0.84375 -2.34375 C 1.175781 -2.34375 1.457031 -2.226562 1.6875 -2 C 1.914062 -1.78125 2.03125 -1.503906 2.03125 -1.171875 C 2.03125 -0.835938 1.914062 -0.554688 1.6875 -0.328125 C 1.457031 -0.109375 1.175781 0 0.84375 0 L 0.171875 0 Z M 0.703125 -0.484375 L 0.78125 -0.484375 C 0.976562 -0.484375 1.140625 -0.546875 1.265625 -0.671875 C 1.390625 -0.804688 1.453125 -0.972656 1.453125 -1.171875 C 1.453125 -1.367188 1.390625 -1.535156 1.265625 -1.671875 C 1.140625 -1.804688 0.976562 -1.875 0.78125 -1.875 L 0.703125 -1.875 Z M 0.703125 -0.484375 "/></g></g></g><g fill="#000000" fill-opacity="1"><g transform="translate(127.303504, 69.303572)"><g><path d="M 1.359375 -2.34375 L 2.3125 0 L 1.734375 0 L 1.5625 -0.46875 L 0.671875 -0.46875 L 0.5 0 L -0.078125 0 L 0.875 -2.34375 Z M 1.375 -0.9375 L 1.125 -1.625 L 1.109375 -1.625 L 0.84375 -0.9375 Z M 1.375 -0.9375 "/></g></g></g><g fill="#000000" fill-opacity="1"><g transform="translate(130.056764, 69.303572)"><g><path d="M 1.03125 -2.390625 C 1.15625 -2.390625 1.28125 -2.367188 1.40625 -2.328125 C 1.53125 -2.296875 1.617188 -2.257812 1.671875 -2.21875 L 1.765625 -2.171875 L 1.546875 -1.734375 C 1.523438 -1.742188 1.5 -1.757812 1.46875 -1.78125 C 1.445312 -1.800781 1.394531 -1.828125 1.3125 -1.859375 C 1.226562 -1.890625 1.148438 -1.90625 1.078125 -1.90625 C 0.984375 -1.90625 0.910156 -1.882812 0.859375 -1.84375 C 0.816406 -1.800781 0.796875 -1.75 0.796875 -1.6875 C 0.796875 -1.65625 0.804688 -1.625 0.828125 -1.59375 C 0.847656 -1.570312 0.882812 -1.546875 0.9375 -1.515625 C 1 -1.484375 1.050781 -1.457031 1.09375 -1.4375 C 1.132812 -1.414062 1.195312 -1.390625 1.28125 -1.359375 C 1.4375 -1.285156 1.566406 -1.191406 1.671875 -1.078125 C 1.773438 -0.972656 1.828125 -0.851562 1.828125 -0.71875 C 1.828125 -0.582031 1.800781 -0.460938 1.75 -0.359375 C 1.707031 -0.253906 1.644531 -0.175781 1.5625 -0.125 C 1.476562 -0.0703125 1.382812 -0.03125 1.28125 0 C 1.175781 0.03125 1.066406 0.046875 0.953125 0.046875 C 0.847656 0.046875 0.742188 0.0351562 0.640625 0.015625 C 0.546875 -0.00390625 0.460938 -0.03125 0.390625 -0.0625 C 0.328125 -0.09375 0.269531 -0.125 0.21875 -0.15625 C 0.164062 -0.1875 0.128906 -0.210938 0.109375 -0.234375 L 0.0625 -0.265625 L 0.328125 -0.71875 C 0.347656 -0.695312 0.378906 -0.671875 0.421875 -0.640625 C 0.460938 -0.609375 0.535156 -0.566406 0.640625 -0.515625 C 0.742188 -0.472656 0.832031 -0.453125 0.90625 -0.453125 C 1.132812 -0.453125 1.25 -0.53125 1.25 -0.6875 C 1.25 -0.71875 1.238281 -0.742188 1.21875 -0.765625 C 1.207031 -0.796875 1.179688 -0.820312 1.140625 -0.84375 C 1.097656 -0.875 1.0625 -0.894531 1.03125 -0.90625 C 1 -0.925781 0.945312 -0.953125 0.875 -0.984375 C 0.800781 -1.023438 0.75 -1.050781 0.71875 -1.0625 C 0.570312 -1.132812 0.457031 -1.222656 0.375 -1.328125 C 0.300781 -1.429688 0.265625 -1.546875 0.265625 -1.671875 C 0.265625 -1.878906 0.34375 -2.050781 0.5 -2.1875 C 0.65625 -2.320312 0.832031 -2.390625 1.03125 -2.390625 Z M 1.03125 -2.390625 "/></g></g></g><g fill="#000000" fill-opacity="1"><g transform="translate(132.490805, 69.303572)"><g><path d="M 0.703125 -0.9375 L 0.703125 0 L 0.171875 0 L 0.171875 -2.34375 L 0.703125 -2.34375 L 0.703125 -1.40625 L 1.46875 -1.40625 L 1.46875 -2.34375 L 2 -2.34375 L 2 0 L 1.46875 0 L 1.46875 -0.9375 Z M 0.703125 -0.9375 "/></g></g></g><g fill="#000000" fill-opacity="1"><g transform="translate(135.181361, 69.303572)"><g><path d="M 0.171875 -2.34375 L 0.90625 -2.34375 C 1.125 -2.34375 1.296875 -2.296875 1.421875 -2.203125 C 1.554688 -2.109375 1.625 -1.957031 1.625 -1.75 C 1.625 -1.507812 1.523438 -1.34375 1.328125 -1.25 C 1.660156 -1.1875 1.828125 -0.988281 1.828125 -0.65625 C 1.828125 -0.457031 1.757812 -0.296875 1.625 -0.171875 C 1.488281 -0.0546875 1.300781 0 1.0625 0 L 0.171875 0 Z M 0.703125 -1.421875 L 0.75 -1.421875 C 0.863281 -1.421875 0.953125 -1.441406 1.015625 -1.484375 C 1.078125 -1.523438 1.109375 -1.59375 1.109375 -1.6875 C 1.109375 -1.851562 0.988281 -1.9375 0.75 -1.9375 L 0.703125 -1.9375 Z M 0.703125 -0.40625 L 0.875 -0.40625 C 1.132812 -0.40625 1.265625 -0.492188 1.265625 -0.671875 C 1.265625 -0.773438 1.226562 -0.847656 1.15625 -0.890625 C 1.09375 -0.941406 1 -0.96875 0.875 -0.96875 L 0.703125 -0.96875 Z M 0.703125 -0.40625 "/></g></g></g><g fill="#000000" fill-opacity="1"><g transform="translate(137.5983, 69.303572)"><g><path d="M 0.0625 -1.171875 C 0.0625 -1.515625 0.175781 -1.800781 0.40625 -2.03125 C 0.644531 -2.269531 0.925781 -2.390625 1.25 -2.390625 C 1.570312 -2.390625 1.847656 -2.269531 2.078125 -2.03125 C 2.304688 -1.800781 2.421875 -1.515625 2.421875 -1.171875 C 2.421875 -0.828125 2.304688 -0.535156 2.078125 -0.296875 C 1.859375 -0.0664062 1.582031 0.046875 1.25 0.046875 C 0.90625 0.046875 0.617188 -0.0664062 0.390625 -0.296875 C 0.171875 -0.535156 0.0625 -0.828125 0.0625 -1.171875 Z M 0.640625 -1.171875 C 0.640625 -1.046875 0.65625 -0.929688 0.6875 -0.828125 C 0.726562 -0.734375 0.796875 -0.648438 0.890625 -0.578125 C 0.992188 -0.503906 1.113281 -0.46875 1.25 -0.46875 C 1.445312 -0.46875 1.59375 -0.535156 1.6875 -0.671875 C 1.789062 -0.816406 1.84375 -0.984375 1.84375 -1.171875 C 1.84375 -1.367188 1.789062 -1.535156 1.6875 -1.671875 C 1.59375 -1.804688 1.445312 -1.875 1.25 -1.875 C 1.050781 -1.875 0.898438 -1.804688 0.796875 -1.671875 C 0.691406 -1.535156 0.640625 -1.367188 0.640625 -1.171875 Z M 0.640625 -1.171875 "/></g></g></g><g fill="#000000" fill-opacity="1"><g transform="translate(140.616627, 69.303572)"><g><path d="M 1.359375 -2.34375 L 2.3125 0 L 1.734375 0 L 1.5625 -0.46875 L 0.671875 -0.46875 L 0.5 0 L -0.078125 0 L 0.875 -2.34375 Z M 1.375 -0.9375 L 1.125 -1.625 L 1.109375 -1.625 L 0.84375 -0.9375 Z M 1.375 -0.9375 "/></g></g></g><g fill="#000000" fill-opacity="1"><g transform="translate(143.369887, 69.303572)"><g><path d="M 0.171875 -2.34375 L 1.015625 -2.34375 C 1.234375 -2.34375 1.414062 -2.28125 1.5625 -2.15625 C 1.707031 -2.039062 1.78125 -1.875 1.78125 -1.65625 C 1.78125 -1.476562 1.734375 -1.332031 1.640625 -1.21875 C 1.554688 -1.101562 1.441406 -1.019531 1.296875 -0.96875 L 2.109375 0 L 1.421875 0 L 0.703125 -0.921875 L 0.703125 0 L 0.171875 0 Z M 0.703125 -1.3125 L 0.765625 -1.3125 C 0.816406 -1.3125 0.859375 -1.3125 0.890625 -1.3125 C 0.921875 -1.3125 0.957031 -1.316406 1 -1.328125 C 1.050781 -1.335938 1.085938 -1.351562 1.109375 -1.375 C 1.140625 -1.394531 1.164062 -1.425781 1.1875 -1.46875 C 1.207031 -1.507812 1.21875 -1.554688 1.21875 -1.609375 C 1.21875 -1.671875 1.207031 -1.71875 1.1875 -1.75 C 1.164062 -1.789062 1.140625 -1.820312 1.109375 -1.84375 C 1.085938 -1.863281 1.050781 -1.878906 1 -1.890625 C 0.957031 -1.898438 0.921875 -1.90625 0.890625 -1.90625 C 0.859375 -1.914062 0.816406 -1.921875 0.765625 -1.921875 L 0.703125 -1.921875 Z M 0.703125 -1.3125 "/></g></g></g><g fill="#000000" fill-opacity="1"><g transform="translate(145.929335, 69.303572)"><g><path d="M 0.171875 -2.34375 L 0.84375 -2.34375 C 1.175781 -2.34375 1.457031 -2.226562 1.6875 -2 C 1.914062 -1.78125 2.03125 -1.503906 2.03125 -1.171875 C 2.03125 -0.835938 1.914062 -0.554688 1.6875 -0.328125 C 1.457031 -0.109375 1.175781 0 0.84375 0 L 0.171875 0 Z M 0.703125 -0.484375 L 0.78125 -0.484375 C 0.976562 -0.484375 1.140625 -0.546875 1.265625 -0.671875 C 1.390625 -0.804688 1.453125 -0.972656 1.453125 -1.171875 C 1.453125 -1.367188 1.390625 -1.535156 1.265625 -1.671875 C 1.140625 -1.804688 0.976562 -1.875 0.78125 -1.875 L 0.703125 -1.875 Z M 0.703125 -0.484375 "/></g></g></g><g fill="#000000" fill-opacity="1"><g transform="translate(148.551488, 69.303572)"><g/></g></g><g fill="#000000" fill-opacity="1"><g transform="translate(149.848311, 69.303572)"><g><path d="M 0.171875 -2.34375 L 0.90625 -2.34375 C 1.125 -2.34375 1.296875 -2.296875 1.421875 -2.203125 C 1.554688 -2.109375 1.625 -1.957031 1.625 -1.75 C 1.625 -1.507812 1.523438 -1.34375 1.328125 -1.25 C 1.660156 -1.1875 1.828125 -0.988281 1.828125 -0.65625 C 1.828125 -0.457031 1.757812 -0.296875 1.625 -0.171875 C 1.488281 -0.0546875 1.300781 0 1.0625 0 L 0.171875 0 Z M 0.703125 -1.421875 L 0.75 -1.421875 C 0.863281 -1.421875 0.953125 -1.441406 1.015625 -1.484375 C 1.078125 -1.523438 1.109375 -1.59375 1.109375 -1.6875 C 1.109375 -1.851562 0.988281 -1.9375 0.75 -1.9375 L 0.703125 -1.9375 Z M 0.703125 -0.40625 L 0.875 -0.40625 C 1.132812 -0.40625 1.265625 -0.492188 1.265625 -0.671875 C 1.265625 -0.773438 1.226562 -0.847656 1.15625 -0.890625 C 1.09375 -0.941406 1 -0.96875 0.875 -0.96875 L 0.703125 -0.96875 Z M 0.703125 -0.40625 "/></g></g></g><g fill="#000000" fill-opacity="1"><g transform="translate(152.26525, 69.303572)"><g><path d="M 1.96875 -2.34375 L 1.96875 -0.828125 C 1.96875 -0.546875 1.890625 -0.328125 1.734375 -0.171875 C 1.578125 -0.0234375 1.347656 0.046875 1.046875 0.046875 C 0.753906 0.046875 0.53125 -0.0234375 0.375 -0.171875 C 0.21875 -0.328125 0.140625 -0.546875 0.140625 -0.828125 L 0.140625 -2.34375 L 0.671875 -2.34375 L 0.671875 -0.984375 C 0.671875 -0.796875 0.703125 -0.664062 0.765625 -0.59375 C 0.828125 -0.519531 0.925781 -0.484375 1.0625 -0.484375 C 1.195312 -0.484375 1.289062 -0.519531 1.34375 -0.59375 C 1.40625 -0.664062 1.4375 -0.796875 1.4375 -0.984375 L 1.4375 -2.34375 Z M 1.96875 -2.34375 "/></g></g></g><g fill="#000000" fill-opacity="1"><g transform="translate(154.904502, 69.303572)"><g><path d="M 0.171875 -2.34375 L 0.84375 -2.34375 C 1.175781 -2.34375 1.457031 -2.226562 1.6875 -2 C 1.914062 -1.78125 2.03125 -1.503906 2.03125 -1.171875 C 2.03125 -0.835938 1.914062 -0.554688 1.6875 -0.328125 C 1.457031 -0.109375 1.175781 0 0.84375 0 L 0.171875 0 Z M 0.703125 -0.484375 L 0.78125 -0.484375 C 0.976562 -0.484375 1.140625 -0.546875 1.265625 -0.671875 C 1.390625 -0.804688 1.453125 -0.972656 1.453125 -1.171875 C 1.453125 -1.367188 1.390625 -1.535156 1.265625 -1.671875 C 1.140625 -1.804688 0.976562 -1.875 0.78125 -1.875 L 0.703125 -1.875 Z M 0.703125 -0.484375 "/></g></g></g><g fill="#000000" fill-opacity="1"><g transform="translate(157.526655, 69.303572)"><g><path d="M 0.171875 -2.34375 L 0.84375 -2.34375 C 1.175781 -2.34375 1.457031 -2.226562 1.6875 -2 C 1.914062 -1.78125 2.03125 -1.503906 2.03125 -1.171875 C 2.03125 -0.835938 1.914062 -0.554688 1.6875 -0.328125 C 1.457031 -0.109375 1.175781 0 0.84375 0 L 0.171875 0 Z M 0.703125 -0.484375 L 0.78125 -0.484375 C 0.976562 -0.484375 1.140625 -0.546875 1.265625 -0.671875 C 1.390625 -0.804688 1.453125 -0.972656 1.453125 -1.171875 C 1.453125 -1.367188 1.390625 -1.535156 1.265625 -1.671875 C 1.140625 -1.804688 0.976562 -1.875 0.78125 -1.875 L 0.703125 -1.875 Z M 0.703125 -0.484375 "/></g></g></g><g fill="#000000" fill-opacity="1"><g transform="translate(160.148808, 69.303572)"><g><path d="M -0.078125 -2.34375 L 0.5625 -2.34375 L 1.046875 -1.59375 L 1.53125 -2.34375 L 2.171875 -2.34375 L 1.3125 -1.046875 L 1.3125 0 L 0.78125 0 L 0.78125 -1.046875 Z M -0.078125 -2.34375 "/></g></g></g></svg>